<?xml version="1.0" encoding="UTF-8"?>
<svg xmlns="http://www.w3.org/2000/svg" xmlns:xlink="http://www.w3.org/1999/xlink" width="54px" height="54px" viewBox="0 0 54 54" version="1.1">
<defs>
<clipPath id="clip1">
  <path d="M 32.542969 1.007812 L 52.992188 1.007812 L 52.992188 21.457031 L 32.542969 21.457031 Z M 32.542969 1.007812 "/>
</clipPath>
<clipPath id="clip2">
  <path d="M 33.117188 -9.417969 L 65.191406 15.132812 L 30.273438 60.757812 L -1.804688 36.207031 Z M 33.117188 -9.417969 "/>
</clipPath>
<clipPath id="clip3">
  <path d="M 33.117188 -9.417969 L 65.191406 15.132812 L 30.273438 60.757812 L -1.804688 36.207031 Z M 33.117188 -9.417969 "/>
</clipPath>
<clipPath id="clip4">
  <path d="M 33.117188 -9.417969 L 65.191406 15.132812 L 30.273438 60.757812 L -1.804688 36.207031 Z M 33.117188 -9.417969 "/>
</clipPath>
<clipPath id="clip5">
  <path d="M 32.257812 0.71875 L 53.28125 0.71875 L 53.28125 21.742188 L 32.257812 21.742188 Z M 32.257812 0.71875 "/>
</clipPath>
<clipPath id="clip6">
  <path d="M 33.117188 -9.417969 L 65.191406 15.132812 L 30.273438 60.757812 L -1.804688 36.207031 Z M 33.117188 -9.417969 "/>
</clipPath>
<clipPath id="clip7">
  <path d="M 33.117188 -9.417969 L 65.191406 15.132812 L 30.273438 60.757812 L -1.804688 36.207031 Z M 33.117188 -9.417969 "/>
</clipPath>
<clipPath id="clip8">
  <path d="M 33.117188 -9.417969 L 65.191406 15.132812 L 30.273438 60.757812 L -1.804688 36.207031 Z M 33.117188 -9.417969 "/>
</clipPath>
<clipPath id="clip9">
  <path d="M 33.265625 15.695312 L 40.175781 15.695312 L 40.175781 22.609375 L 33.265625 22.609375 Z M 33.265625 15.695312 "/>
</clipPath>
<clipPath id="clip10">
  <path d="M 33.117188 -9.417969 L 65.191406 15.132812 L 30.273438 60.757812 L -1.804688 36.207031 Z M 33.117188 -9.417969 "/>
</clipPath>
<clipPath id="clip11">
  <path d="M 33.117188 -9.417969 L 65.191406 15.132812 L 30.273438 60.757812 L -1.804688 36.207031 Z M 33.117188 -9.417969 "/>
</clipPath>
<clipPath id="clip12">
  <path d="M 33.117188 -9.417969 L 65.191406 15.132812 L 30.273438 60.757812 L -1.804688 36.207031 Z M 33.117188 -9.417969 "/>
</clipPath>
<clipPath id="clip13">
  <path d="M 32.976562 15.40625 L 40.464844 15.40625 L 40.464844 22.894531 L 32.976562 22.894531 Z M 32.976562 15.40625 "/>
</clipPath>
<clipPath id="clip14">
  <path d="M 33.117188 -9.417969 L 65.191406 15.132812 L 30.273438 60.757812 L -1.804688 36.207031 Z M 33.117188 -9.417969 "/>
</clipPath>
<clipPath id="clip15">
  <path d="M 33.117188 -9.417969 L 65.191406 15.132812 L 30.273438 60.757812 L -1.804688 36.207031 Z M 33.117188 -9.417969 "/>
</clipPath>
<clipPath id="clip16">
  <path d="M 33.117188 -9.417969 L 65.191406 15.132812 L 30.273438 60.757812 L -1.804688 36.207031 Z M 33.117188 -9.417969 "/>
</clipPath>
<clipPath id="clip17">
  <path d="M 5.617188 15.265625 L 44.640625 15.265625 L 44.640625 53.28125 L 5.617188 53.28125 Z M 5.617188 15.265625 "/>
</clipPath>
<clipPath id="clip18">
  <path d="M 33.117188 -9.417969 L 65.191406 15.132812 L 30.273438 60.757812 L -1.804688 36.207031 Z M 33.117188 -9.417969 "/>
</clipPath>
<clipPath id="clip19">
  <path d="M 33.117188 -9.417969 L 65.191406 15.132812 L 30.273438 60.757812 L -1.804688 36.207031 Z M 33.117188 -9.417969 "/>
</clipPath>
<clipPath id="clip20">
  <path d="M 33.117188 -9.417969 L 65.191406 15.132812 L 30.273438 60.757812 L -1.804688 36.207031 Z M 33.117188 -9.417969 "/>
</clipPath>
<clipPath id="clip21">
  <path d="M 5.328125 15 L 44.929688 15 L 44.929688 53.710938 L 5.328125 53.710938 Z M 5.328125 15 "/>
</clipPath>
<clipPath id="clip22">
  <path d="M 33.117188 -9.417969 L 65.191406 15.132812 L 30.273438 60.757812 L -1.804688 36.207031 Z M 33.117188 -9.417969 "/>
</clipPath>
<clipPath id="clip23">
  <path d="M 33.117188 -9.417969 L 65.191406 15.132812 L 30.273438 60.757812 L -1.804688 36.207031 Z M 33.117188 -9.417969 "/>
</clipPath>
<clipPath id="clip24">
  <path d="M 33.117188 -9.417969 L 65.191406 15.132812 L 30.273438 60.757812 L -1.804688 36.207031 Z M 33.117188 -9.417969 "/>
</clipPath>
<clipPath id="clip25">
  <path d="M 9.070312 17 L 42.769531 17 L 42.769531 49.535156 L 9.070312 49.535156 Z M 9.070312 17 "/>
</clipPath>
<clipPath id="clip26">
  <path d="M 33.117188 -9.417969 L 65.191406 15.132812 L 30.273438 60.757812 L -1.804688 36.207031 Z M 33.117188 -9.417969 "/>
</clipPath>
<clipPath id="clip27">
  <path d="M 33.117188 -9.417969 L 65.191406 15.132812 L 30.273438 60.757812 L -1.804688 36.207031 Z M 33.117188 -9.417969 "/>
</clipPath>
<clipPath id="clip28">
  <path d="M 33.117188 -9.417969 L 65.191406 15.132812 L 30.273438 60.757812 L -1.804688 36.207031 Z M 33.117188 -9.417969 "/>
</clipPath>
<clipPath id="clip29">
  <path d="M 8.640625 16.558594 L 43.199219 16.558594 L 43.199219 49.824219 L 8.640625 49.824219 Z M 8.640625 16.558594 "/>
</clipPath>
<clipPath id="clip30">
  <path d="M 33.117188 -9.417969 L 65.191406 15.132812 L 30.273438 60.757812 L -1.804688 36.207031 Z M 33.117188 -9.417969 "/>
</clipPath>
<clipPath id="clip31">
  <path d="M 33.117188 -9.417969 L 65.191406 15.132812 L 30.273438 60.757812 L -1.804688 36.207031 Z M 33.117188 -9.417969 "/>
</clipPath>
<clipPath id="clip32">
  <path d="M 33.117188 -9.417969 L 65.191406 15.132812 L 30.273438 60.757812 L -1.804688 36.207031 Z M 33.117188 -9.417969 "/>
</clipPath>
<clipPath id="clip33">
  <path d="M 12 19.871094 L 39.886719 19.871094 L 39.886719 46.65625 L 12 46.65625 Z M 12 19.871094 "/>
</clipPath>
<clipPath id="clip34">
  <path d="M 33.117188 -9.417969 L 65.191406 15.132812 L 30.273438 60.757812 L -1.804688 36.207031 Z M 33.117188 -9.417969 "/>
</clipPath>
<clipPath id="clip35">
  <path d="M 33.117188 -9.417969 L 65.191406 15.132812 L 30.273438 60.757812 L -1.804688 36.207031 Z M 33.117188 -9.417969 "/>
</clipPath>
<clipPath id="clip36">
  <path d="M 33.117188 -9.417969 L 65.191406 15.132812 L 30.273438 60.757812 L -1.804688 36.207031 Z M 33.117188 -9.417969 "/>
</clipPath>
<clipPath id="clip37">
  <path d="M 11.519531 19.441406 L 40.320312 19.441406 L 40.320312 46.945312 L 11.519531 46.945312 Z M 11.519531 19.441406 "/>
</clipPath>
<clipPath id="clip38">
  <path d="M 33.117188 -9.417969 L 65.191406 15.132812 L 30.273438 60.757812 L -1.804688 36.207031 Z M 33.117188 -9.417969 "/>
</clipPath>
<clipPath id="clip39">
  <path d="M 33.117188 -9.417969 L 65.191406 15.132812 L 30.273438 60.757812 L -1.804688 36.207031 Z M 33.117188 -9.417969 "/>
</clipPath>
<clipPath id="clip40">
  <path d="M 33.117188 -9.417969 L 65.191406 15.132812 L 30.273438 60.757812 L -1.804688 36.207031 Z M 33.117188 -9.417969 "/>
</clipPath>
<clipPath id="clip41">
  <path d="M 10.078125 37.871094 L 14.257812 37.871094 L 14.257812 42 L 10.078125 42 Z M 10.078125 37.871094 "/>
</clipPath>
<clipPath id="clip42">
  <path d="M 33.117188 -9.417969 L 65.191406 15.132812 L 30.273438 60.757812 L -1.804688 36.207031 Z M 33.117188 -9.417969 "/>
</clipPath>
<clipPath id="clip43">
  <path d="M 33.117188 -9.417969 L 65.191406 15.132812 L 30.273438 60.757812 L -1.804688 36.207031 Z M 33.117188 -9.417969 "/>
</clipPath>
<clipPath id="clip44">
  <path d="M 33.117188 -9.417969 L 65.191406 15.132812 L 30.273438 60.757812 L -1.804688 36.207031 Z M 33.117188 -9.417969 "/>
</clipPath>
<clipPath id="clip45">
  <path d="M 9.792969 37.585938 L 14.542969 37.585938 L 14.542969 42.335938 L 9.792969 42.335938 Z M 9.792969 37.585938 "/>
</clipPath>
<clipPath id="clip46">
  <path d="M 33.117188 -9.417969 L 65.191406 15.132812 L 30.273438 60.757812 L -1.804688 36.207031 Z M 33.117188 -9.417969 "/>
</clipPath>
<clipPath id="clip47">
  <path d="M 33.117188 -9.417969 L 65.191406 15.132812 L 30.273438 60.757812 L -1.804688 36.207031 Z M 33.117188 -9.417969 "/>
</clipPath>
<clipPath id="clip48">
  <path d="M 33.117188 -9.417969 L 65.191406 15.132812 L 30.273438 60.757812 L -1.804688 36.207031 Z M 33.117188 -9.417969 "/>
</clipPath>
<clipPath id="clip49">
  <path d="M 15.550781 42.046875 L 19.585938 42.046875 L 19.585938 46.078125 L 15.550781 46.078125 Z M 15.550781 42.046875 "/>
</clipPath>
<clipPath id="clip50">
  <path d="M 33.117188 -9.417969 L 65.191406 15.132812 L 30.273438 60.757812 L -1.804688 36.207031 Z M 33.117188 -9.417969 "/>
</clipPath>
<clipPath id="clip51">
  <path d="M 33.117188 -9.417969 L 65.191406 15.132812 L 30.273438 60.757812 L -1.804688 36.207031 Z M 33.117188 -9.417969 "/>
</clipPath>
<clipPath id="clip52">
  <path d="M 33.117188 -9.417969 L 65.191406 15.132812 L 30.273438 60.757812 L -1.804688 36.207031 Z M 33.117188 -9.417969 "/>
</clipPath>
<clipPath id="clip53">
  <path d="M 15.265625 41.761719 L 19.871094 41.761719 L 19.871094 46.367188 L 15.265625 46.367188 Z M 15.265625 41.761719 "/>
</clipPath>
<clipPath id="clip54">
  <path d="M 33.117188 -9.417969 L 65.191406 15.132812 L 30.273438 60.757812 L -1.804688 36.207031 Z M 33.117188 -9.417969 "/>
</clipPath>
<clipPath id="clip55">
  <path d="M 33.117188 -9.417969 L 65.191406 15.132812 L 30.273438 60.757812 L -1.804688 36.207031 Z M 33.117188 -9.417969 "/>
</clipPath>
<clipPath id="clip56">
  <path d="M 33.117188 -9.417969 L 65.191406 15.132812 L 30.273438 60.757812 L -1.804688 36.207031 Z M 33.117188 -9.417969 "/>
</clipPath>
<clipPath id="clip57">
  <path d="M 21.023438 46.222656 L 25.054688 46.222656 L 25.054688 50.257812 L 21.023438 50.257812 Z M 21.023438 46.222656 "/>
</clipPath>
<clipPath id="clip58">
  <path d="M 33.117188 -9.417969 L 65.191406 15.132812 L 30.273438 60.757812 L -1.804688 36.207031 Z M 33.117188 -9.417969 "/>
</clipPath>
<clipPath id="clip59">
  <path d="M 33.117188 -9.417969 L 65.191406 15.132812 L 30.273438 60.757812 L -1.804688 36.207031 Z M 33.117188 -9.417969 "/>
</clipPath>
<clipPath id="clip60">
  <path d="M 33.117188 -9.417969 L 65.191406 15.132812 L 30.273438 60.757812 L -1.804688 36.207031 Z M 33.117188 -9.417969 "/>
</clipPath>
<clipPath id="clip61">
  <path d="M 20.734375 45.9375 L 25.34375 45.9375 L 25.34375 50.542969 L 20.734375 50.542969 Z M 20.734375 45.9375 "/>
</clipPath>
<clipPath id="clip62">
  <path d="M 33.117188 -9.417969 L 65.191406 15.132812 L 30.273438 60.757812 L -1.804688 36.207031 Z M 33.117188 -9.417969 "/>
</clipPath>
<clipPath id="clip63">
  <path d="M 33.117188 -9.417969 L 65.191406 15.132812 L 30.273438 60.757812 L -1.804688 36.207031 Z M 33.117188 -9.417969 "/>
</clipPath>
<clipPath id="clip64">
  <path d="M 33.117188 -9.417969 L 65.191406 15.132812 L 30.273438 60.757812 L -1.804688 36.207031 Z M 33.117188 -9.417969 "/>
</clipPath>
<clipPath id="clip65">
  <path d="M 18.863281 24.625 L 34.128906 24.625 L 34.128906 40.464844 L 18.863281 40.464844 Z M 18.863281 24.625 "/>
</clipPath>
<clipPath id="clip66">
  <path d="M 33.117188 -9.417969 L 65.191406 15.132812 L 30.273438 60.757812 L -1.804688 36.207031 Z M 33.117188 -9.417969 "/>
</clipPath>
<clipPath id="clip67">
  <path d="M 33.117188 -9.417969 L 65.191406 15.132812 L 30.273438 60.757812 L -1.804688 36.207031 Z M 33.117188 -9.417969 "/>
</clipPath>
<clipPath id="clip68">
  <path d="M 33.117188 -9.417969 L 65.191406 15.132812 L 30.273438 60.757812 L -1.804688 36.207031 Z M 33.117188 -9.417969 "/>
</clipPath>
</defs>
<g id="surface1">
<g clip-path="url(#clip1)" clip-rule="nonzero">
<g clip-path="url(#clip2)" clip-rule="nonzero">
<g clip-path="url(#clip3)" clip-rule="nonzero">
<g clip-path="url(#clip4)" clip-rule="nonzero">
<path style=" stroke:none;fill-rule:nonzero;fill:rgb(13.72549%,12.156863%,12.54902%);fill-opacity:1;" d="M 50.363281 17.050781 C 47.152344 21.238281 41.132812 22.042969 36.945312 18.832031 C 32.757812 15.625 31.964844 9.609375 35.175781 5.414062 C 38.386719 1.222656 44.402344 0.421875 48.589844 3.628906 C 52.78125 6.835938 53.574219 12.855469 50.363281 17.050781 Z M 50.789062 17.375 C 54.179688 12.949219 53.339844 6.59375 48.917969 3.203125 C 44.496094 -0.183594 38.140625 0.664062 34.746094 5.089844 C 31.359375 9.515625 32.195312 15.875 36.617188 19.261719 C 41.042969 22.648438 47.398438 21.800781 50.789062 17.375 "/>
</g>
</g>
</g>
</g>
<g clip-path="url(#clip5)" clip-rule="nonzero">
<g clip-path="url(#clip6)" clip-rule="nonzero">
<g clip-path="url(#clip7)" clip-rule="nonzero">
<g clip-path="url(#clip8)" clip-rule="nonzero">
<path style=" stroke:none;fill-rule:nonzero;fill:rgb(13.72549%,12.156863%,12.54902%);fill-opacity:1;" d="M 47.8125 3.511719 C 48.097656 3.707031 48.488281 3.628906 48.679688 3.34375 C 48.875 3.054688 48.800781 2.667969 48.511719 2.472656 L 48.492188 2.460938 C 48.203125 2.269531 47.824219 2.355469 47.632812 2.640625 C 47.449219 2.917969 47.519531 3.292969 47.78125 3.488281 Z M 50.585938 5.226562 C 50.847656 5 50.871094 4.601562 50.644531 4.34375 L 50.164062 4.746094 L 50.636719 4.335938 C 50.414062 4.074219 50.015625 4.046875 49.753906 4.269531 C 49.492188 4.496094 49.460938 4.890625 49.6875 5.152344 L 49.707031 5.171875 C 49.730469 5.203125 49.761719 5.230469 49.792969 5.257812 C 50.027344 5.433594 50.359375 5.429688 50.585938 5.226562 Z M 45.558594 2.429688 C 45.890625 2.535156 46.242188 2.351562 46.347656 2.023438 C 46.453125 1.695312 46.269531 1.34375 45.941406 1.238281 L 45.921875 1.230469 C 45.59375 1.125 45.25 1.3125 45.144531 1.640625 C 45.0625 1.898438 45.160156 2.171875 45.367188 2.328125 C 45.425781 2.375 45.488281 2.40625 45.558594 2.429688 Z M 51.894531 7.574219 C 52.207031 7.429688 52.347656 7.058594 52.203125 6.742188 L 52.191406 6.714844 C 52.042969 6.402344 51.667969 6.273438 51.359375 6.425781 C 51.046875 6.574219 50.917969 6.949219 51.066406 7.261719 C 51.109375 7.359375 51.175781 7.4375 51.253906 7.5 C 51.429688 7.636719 51.675781 7.671875 51.894531 7.574219 Z M 43.074219 1.996094 L 43.09375 1.996094 C 43.4375 2.007812 43.726562 1.738281 43.738281 1.390625 C 43.75 1.046875 43.480469 0.757812 43.132812 0.746094 L 43.09375 1.371094 L 43.117188 0.746094 C 42.773438 0.734375 42.484375 1.003906 42.46875 1.347656 C 42.460938 1.558594 42.558594 1.75 42.714844 1.867188 C 42.816406 1.945312 42.9375 1.992188 43.074219 1.996094 Z M 52.527344 10.175781 C 52.871094 10.125 53.105469 9.804688 53.050781 9.460938 L 53.046875 9.433594 C 52.988281 9.09375 52.667969 8.875 52.332031 8.929688 C 51.992188 8.988281 51.761719 9.316406 51.816406 9.652344 C 51.839844 9.820312 51.929688 9.960938 52.050781 10.054688 C 52.183594 10.15625 52.351562 10.203125 52.527344 10.175781 Z M 40.578125 2.25 L 40.59375 2.246094 C 40.929688 2.164062 41.136719 1.824219 41.058594 1.488281 C 40.976562 1.152344 40.636719 0.945312 40.300781 1.027344 L 40.429688 1.640625 L 40.285156 1.03125 C 39.949219 1.113281 39.742188 1.453125 39.824219 1.785156 C 39.859375 1.929688 39.941406 2.054688 40.050781 2.136719 C 40.195312 2.25 40.386719 2.296875 40.578125 2.25 Z M 52.457031 12.855469 C 52.800781 12.890625 53.105469 12.636719 53.140625 12.292969 L 52.519531 12.21875 L 53.140625 12.285156 C 53.179688 11.941406 52.933594 11.632812 52.585938 11.59375 C 52.246094 11.558594 51.933594 11.804688 51.898438 12.148438 L 51.894531 12.179688 C 51.875 12.398438 51.972656 12.605469 52.136719 12.730469 C 52.226562 12.800781 52.335938 12.84375 52.457031 12.855469 Z M 38.253906 3.15625 C 38.558594 2.988281 38.667969 2.605469 38.5 2.304688 C 38.332031 2 37.949219 1.894531 37.648438 2.0625 L 37.628906 2.070312 C 37.328125 2.242188 37.230469 2.617188 37.398438 2.917969 C 37.4375 2.992188 37.496094 3.054688 37.558594 3.105469 C 37.753906 3.253906 38.027344 3.28125 38.253906 3.15625 Z M 51.640625 15.417969 C 51.960938 15.546875 52.324219 15.394531 52.457031 15.070312 L 52.464844 15.046875 C 52.589844 14.726562 52.429688 14.371094 52.109375 14.246094 C 51.792969 14.121094 51.425781 14.28125 51.296875 14.601562 C 51.1875 14.867188 51.273438 15.167969 51.492188 15.332031 C 51.539062 15.367188 51.585938 15.394531 51.640625 15.417969 Z M 36.238281 4.675781 L 36.253906 4.660156 C 36.496094 4.417969 36.496094 4.019531 36.253906 3.777344 C 36.007812 3.53125 35.613281 3.53125 35.367188 3.777344 L 35.796875 4.230469 L 35.355469 3.789062 C 35.109375 4.03125 35.109375 4.429688 35.355469 4.675781 C 35.375 4.695312 35.394531 4.714844 35.417969 4.730469 C 35.660156 4.917969 36.015625 4.898438 36.238281 4.675781 Z M 51.023438 17.578125 L 51.042969 17.558594 L 51.054688 17.539062 L 51.0625 17.53125 L 51.0625 17.535156 C 51.273438 17.257812 51.21875 16.867188 50.945312 16.65625 C 50.671875 16.445312 50.277344 16.496094 50.066406 16.773438 L 50.03125 16.820312 C 49.820312 17.09375 49.875 17.488281 50.148438 17.695312 C 50.421875 17.90625 50.816406 17.855469 51.023438 17.578125 Z M 33.863281 6.90625 C 34.160156 7.078125 34.542969 6.972656 34.71875 6.675781 L 34.730469 6.652344 C 34.898438 6.347656 34.789062 5.96875 34.484375 5.800781 C 34.183594 5.632812 33.804688 5.742188 33.632812 6.042969 L 34.171875 6.363281 L 33.628906 6.050781 C 33.472656 6.328125 33.546875 6.671875 33.789062 6.859375 C 33.8125 6.875 33.835938 6.890625 33.863281 6.90625 Z M 48.996094 19.585938 L 49.015625 19.570312 C 49.289062 19.363281 49.339844 18.980469 49.132812 18.703125 C 48.925781 18.429688 48.53125 18.375 48.253906 18.582031 C 47.976562 18.785156 47.914062 19.179688 48.121094 19.457031 C 48.15625 19.503906 48.199219 19.546875 48.242188 19.578125 C 48.460938 19.746094 48.765625 19.757812 48.996094 19.585938 Z M 33.03125 9.449219 C 33.367188 9.535156 33.710938 9.320312 33.792969 8.984375 C 33.875 8.648438 33.671875 8.308594 33.335938 8.226562 C 33 8.144531 32.660156 8.347656 32.578125 8.683594 L 32.574219 8.703125 C 32.511719 8.949219 32.609375 9.195312 32.796875 9.335938 C 32.863281 9.390625 32.945312 9.429688 33.03125 9.449219 Z M 46.503906 20.96875 L 46.527344 20.957031 C 46.847656 20.832031 46.996094 20.472656 46.871094 20.152344 C 46.75 19.832031 46.382812 19.675781 46.058594 19.796875 C 45.734375 19.917969 45.574219 20.28125 45.695312 20.601562 C 45.738281 20.71875 45.808594 20.808594 45.898438 20.878906 C 46.066406 21.003906 46.292969 21.046875 46.503906 20.96875 Z M 32.917969 12.140625 C 33.261719 12.132812 33.535156 11.84375 33.527344 11.496094 L 33.527344 11.472656 C 33.511719 11.128906 33.222656 10.859375 32.878906 10.871094 C 32.53125 10.886719 32.261719 11.175781 32.273438 11.519531 L 32.898438 11.515625 L 32.273438 11.53125 C 32.277344 11.730469 32.375 11.902344 32.519531 12.011719 C 32.628906 12.097656 32.769531 12.144531 32.917969 12.140625 Z M 43.742188 21.621094 L 43.691406 21 L 43.75 21.621094 C 44.09375 21.589844 44.347656 21.285156 44.316406 20.941406 C 44.285156 20.597656 43.980469 20.34375 43.636719 20.375 L 43.605469 20.378906 C 43.261719 20.414062 43.019531 20.722656 43.054688 21.066406 C 43.074219 21.242188 43.164062 21.394531 43.296875 21.496094 C 43.417969 21.589844 43.578125 21.636719 43.742188 21.621094 Z M 33.527344 14.746094 C 33.855469 14.644531 34.035156 14.289062 33.941406 13.960938 C 33.839844 13.628906 33.492188 13.441406 33.160156 13.539062 C 32.832031 13.636719 32.640625 13.984375 32.738281 14.316406 L 32.75 14.347656 C 32.785156 14.472656 32.863281 14.574219 32.960938 14.648438 C 33.113281 14.765625 33.324219 14.808594 33.527344 14.746094 Z M 40.898438 21.511719 L 41.015625 20.898438 L 40.90625 21.515625 C 41.246094 21.574219 41.570312 21.347656 41.632812 21.007812 C 41.691406 20.667969 41.46875 20.34375 41.125 20.28125 L 41.101562 20.277344 C 40.761719 20.222656 40.4375 20.453125 40.382812 20.792969 C 40.34375 21.03125 40.441406 21.257812 40.621094 21.394531 C 40.699219 21.453125 40.792969 21.496094 40.898438 21.511719 "/>
</g>
</g>
</g>
</g>
<g clip-path="url(#clip9)" clip-rule="nonzero">
<g clip-path="url(#clip10)" clip-rule="nonzero">
<g clip-path="url(#clip11)" clip-rule="nonzero">
<g clip-path="url(#clip12)" clip-rule="nonzero">
<path style=" stroke:none;fill-rule:nonzero;fill:rgb(100%,100%,100%);fill-opacity:1;" d="M 38 20.191406 C 38.5625 19.460938 38.421875 18.414062 37.695312 17.855469 C 36.964844 17.296875 35.921875 17.4375 35.363281 18.167969 C 34.800781 18.898438 34.941406 19.941406 35.667969 20.5 C 36.398438 21.058594 37.441406 20.921875 38 20.191406 Z M 39.386719 21.25 C 38.242188 22.746094 36.101562 23.03125 34.605469 21.886719 C 33.113281 20.742188 32.828125 18.601562 33.976562 17.105469 C 35.121094 15.609375 37.261719 15.324219 38.757812 16.46875 C 40.25 17.617188 40.535156 19.753906 39.386719 21.25 "/>
</g>
</g>
</g>
</g>
<g clip-path="url(#clip13)" clip-rule="nonzero">
<g clip-path="url(#clip14)" clip-rule="nonzero">
<g clip-path="url(#clip15)" clip-rule="nonzero">
<g clip-path="url(#clip16)" clip-rule="nonzero">
<path style=" stroke:none;fill-rule:nonzero;fill:rgb(13.72549%,12.156863%,12.54902%);fill-opacity:1;" d="M 38 20.191406 L 38.238281 20.371094 C 38.894531 19.507812 38.730469 18.28125 37.875 17.625 C 37.015625 16.964844 35.785156 17.128906 35.128906 17.988281 C 34.46875 18.847656 34.632812 20.078125 35.488281 20.734375 C 36.347656 21.390625 37.578125 21.230469 38.238281 20.371094 L 38 20.191406 L 37.769531 20.011719 C 37.308594 20.609375 36.449219 20.726562 35.847656 20.265625 C 35.25 19.808594 35.136719 18.949219 35.597656 18.347656 C 35.828125 18.046875 36.152344 17.867188 36.503906 17.820312 C 36.851562 17.777344 37.214844 17.859375 37.515625 18.089844 C 37.816406 18.320312 37.992188 18.648438 38.039062 18.996094 C 38.085938 19.347656 38 19.710938 37.769531 20.011719 Z M 39.386719 21.25 L 39.152344 21.074219 C 38.109375 22.4375 36.152344 22.699219 34.785156 21.652344 C 33.421875 20.605469 33.164062 18.652344 34.210938 17.285156 C 35.257812 15.917969 37.210938 15.660156 38.578125 16.703125 C 39.941406 17.75 40.199219 19.703125 39.152344 21.074219 L 39.621094 21.429688 C 40.867188 19.804688 40.558594 17.480469 38.9375 16.234375 C 37.3125 14.992188 34.988281 15.300781 33.742188 16.925781 C 32.496094 18.554688 32.804688 20.878906 34.429688 22.121094 C 36.050781 23.367188 38.378906 23.054688 39.621094 21.429688 L 39.386719 21.25 "/>
</g>
</g>
</g>
</g>
<g clip-path="url(#clip17)" clip-rule="nonzero">
<g clip-path="url(#clip18)" clip-rule="nonzero">
<g clip-path="url(#clip19)" clip-rule="nonzero">
<g clip-path="url(#clip20)" clip-rule="nonzero">
<path style=" stroke:none;fill-rule:nonzero;fill:rgb(100%,100%,100%);fill-opacity:1;" d="M 40.890625 46.414062 C 35.011719 54.089844 24.03125 55.550781 16.367188 49.675781 L 12.527344 46.738281 C 4.859375 40.867188 3.414062 29.882812 9.289062 22.210938 C 15.167969 14.535156 26.148438 13.074219 33.816406 18.945312 L 37.652344 21.882812 C 45.320312 27.757812 46.769531 38.738281 40.890625 46.414062 "/>
</g>
</g>
</g>
</g>
<g clip-path="url(#clip21)" clip-rule="nonzero">
<g clip-path="url(#clip22)" clip-rule="nonzero">
<g clip-path="url(#clip23)" clip-rule="nonzero">
<g clip-path="url(#clip24)" clip-rule="nonzero">
<path style=" stroke:none;fill-rule:nonzero;fill:rgb(13.72549%,12.156863%,12.54902%);fill-opacity:1;" d="M 40.890625 46.414062 L 40.65625 46.234375 C 34.878906 53.777344 24.085938 55.214844 16.550781 49.445312 L 16.527344 49.476562 L 16.550781 49.445312 L 16.527344 49.476562 L 16.550781 49.445312 C 16.546875 49.445312 16.539062 49.4375 16.519531 49.425781 L 16.367188 49.675781 L 16.542969 49.441406 L 12.707031 46.503906 C 5.171875 40.730469 3.746094 29.9375 9.519531 22.394531 L 9.308594 22.226562 L 9.5 22.414062 C 9.511719 22.40625 9.519531 22.398438 9.519531 22.394531 L 9.308594 22.226562 L 9.5 22.414062 L 9.523438 22.386719 C 15.304688 14.84375 26.09375 13.40625 33.632812 19.175781 L 33.636719 19.179688 L 33.734375 19.042969 L 33.632812 19.175781 L 33.636719 19.179688 L 33.734375 19.042969 L 33.632812 19.175781 L 33.78125 18.984375 L 33.621094 19.167969 L 33.632812 19.175781 L 33.78125 18.984375 L 33.621094 19.167969 L 33.636719 19.179688 L 37.472656 22.117188 C 45.007812 27.890625 46.433594 38.683594 40.660156 46.230469 L 40.785156 46.324219 L 40.660156 46.226562 L 40.660156 46.230469 L 40.785156 46.324219 L 40.660156 46.226562 C 40.660156 46.230469 40.652344 46.238281 40.644531 46.25 L 40.890625 46.414062 L 40.65625 46.234375 L 40.890625 46.414062 L 41.136719 46.578125 L 40.929688 46.4375 L 41.128906 46.589844 L 41.136719 46.578125 L 40.929688 46.4375 L 41.128906 46.589844 L 41.011719 46.503906 L 41.125 46.589844 L 41.128906 46.589844 L 41.011719 46.503906 L 41.125 46.589844 L 41.128906 46.589844 C 47.101562 38.785156 45.628906 27.621094 37.832031 21.648438 L 33.996094 18.710938 L 33.816406 18.945312 L 34.011719 18.722656 L 33.992188 18.707031 L 33.988281 18.707031 L 33.921875 18.800781 L 33.992188 18.707031 L 33.988281 18.707031 L 33.921875 18.800781 L 33.992188 18.707031 C 26.195312 12.738281 15.03125 14.226562 9.054688 22.03125 L 9.289062 22.210938 L 9.078125 22.003906 C 9.066406 22.015625 9.058594 22.023438 9.054688 22.03125 L 9.050781 22.035156 L 9.203125 22.148438 L 9.050781 22.035156 L 9.203125 22.148438 L 9.050781 22.035156 C 3.078125 29.839844 4.554688 41.003906 12.347656 46.972656 L 16.183594 49.910156 L 16.210938 49.929688 L 16.347656 49.703125 L 16.191406 49.914062 C 16.195312 49.917969 16.199219 49.921875 16.210938 49.929688 L 16.347656 49.703125 L 16.191406 49.914062 L 16.304688 49.765625 L 16.1875 49.914062 L 16.191406 49.914062 L 16.304688 49.765625 L 16.1875 49.914062 L 16.191406 49.917969 C 23.988281 55.882812 35.148438 54.394531 41.125 46.59375 L 41.136719 46.578125 L 40.890625 46.414062 "/>
</g>
</g>
</g>
</g>
<g clip-path="url(#clip25)" clip-rule="nonzero">
<g clip-path="url(#clip26)" clip-rule="nonzero">
<g clip-path="url(#clip27)" clip-rule="nonzero">
<g clip-path="url(#clip28)" clip-rule="nonzero">
<path style=" stroke:none;fill-rule:nonzero;fill:rgb(100%,100%,100%);fill-opacity:1;" d="M 30.433594 49.4375 L 9.09375 33.09375 L 21.414062 17.011719 L 42.75 33.355469 L 30.433594 49.4375 "/>
</g>
</g>
</g>
</g>
<g clip-path="url(#clip29)" clip-rule="nonzero">
<g clip-path="url(#clip30)" clip-rule="nonzero">
<g clip-path="url(#clip31)" clip-rule="nonzero">
<g clip-path="url(#clip32)" clip-rule="nonzero">
<path style=" stroke:none;fill-rule:nonzero;fill:rgb(13.72549%,12.156863%,12.54902%);fill-opacity:1;" d="M 30.433594 49.4375 L 30.632812 49.179688 L 9.554688 33.03125 L 21.472656 17.46875 L 42.292969 33.414062 L 30.171875 49.238281 L 30.433594 49.4375 L 30.632812 49.179688 L 30.433594 49.4375 L 30.695312 49.636719 L 43.011719 33.554688 C 43.066406 33.484375 43.089844 33.398438 43.078125 33.3125 C 43.066406 33.226562 43.019531 33.148438 42.953125 33.09375 L 21.613281 16.75 C 21.46875 16.640625 21.261719 16.667969 21.152344 16.8125 L 8.835938 32.894531 C 8.722656 33.039062 8.75 33.246094 8.894531 33.355469 L 30.234375 49.699219 C 30.304688 49.753906 30.390625 49.773438 30.476562 49.765625 C 30.5625 49.753906 30.640625 49.707031 30.695312 49.636719 L 30.433594 49.4375 "/>
</g>
</g>
</g>
</g>
<g clip-path="url(#clip33)" clip-rule="nonzero">
<g clip-path="url(#clip34)" clip-rule="nonzero">
<g clip-path="url(#clip35)" clip-rule="nonzero">
<g clip-path="url(#clip36)" clip-rule="nonzero">
<path style=" stroke:none;fill-rule:nonzero;fill:rgb(100%,100%,100%);fill-opacity:1;" d="M 30.027344 46.53125 L 12.007812 32.726562 L 21.820312 19.917969 L 39.839844 33.722656 L 30.027344 46.53125 "/>
</g>
</g>
</g>
</g>
<g clip-path="url(#clip37)" clip-rule="nonzero">
<g clip-path="url(#clip38)" clip-rule="nonzero">
<g clip-path="url(#clip39)" clip-rule="nonzero">
<g clip-path="url(#clip40)" clip-rule="nonzero">
<path style=" stroke:none;fill-rule:nonzero;fill:rgb(13.72549%,12.156863%,12.54902%);fill-opacity:1;" d="M 30.027344 46.53125 L 30.242188 46.253906 L 12.5 32.664062 L 21.882812 20.410156 L 39.347656 33.785156 L 29.75 46.316406 L 30.027344 46.53125 L 30.242188 46.253906 L 30.027344 46.53125 L 30.304688 46.742188 L 40.117188 33.933594 C 40.171875 33.859375 40.199219 33.765625 40.1875 33.675781 C 40.175781 33.582031 40.125 33.5 40.054688 33.441406 L 22.03125 19.640625 C 21.878906 19.523438 21.660156 19.550781 21.539062 19.703125 L 11.730469 32.515625 C 11.613281 32.667969 11.640625 32.886719 11.792969 33.003906 L 29.816406 46.808594 C 29.890625 46.867188 29.980469 46.890625 30.074219 46.878906 C 30.167969 46.867188 30.25 46.816406 30.304688 46.742188 L 30.027344 46.53125 "/>
</g>
</g>
</g>
</g>
<g clip-path="url(#clip41)" clip-rule="nonzero">
<g clip-path="url(#clip42)" clip-rule="nonzero">
<g clip-path="url(#clip43)" clip-rule="nonzero">
<g clip-path="url(#clip44)" clip-rule="nonzero">
<path style=" stroke:none;fill-rule:nonzero;fill:rgb(100%,100%,100%);fill-opacity:1;" d="M 12.429688 41.910156 L 10.195312 40.199219 L 11.910156 37.960938 L 14.144531 39.671875 L 12.429688 41.910156 "/>
</g>
</g>
</g>
</g>
<g clip-path="url(#clip45)" clip-rule="nonzero">
<g clip-path="url(#clip46)" clip-rule="nonzero">
<g clip-path="url(#clip47)" clip-rule="nonzero">
<g clip-path="url(#clip48)" clip-rule="nonzero">
<path style=" stroke:none;fill-rule:nonzero;fill:rgb(13.72549%,12.156863%,12.54902%);fill-opacity:1;" d="M 12.429688 41.910156 L 12.609375 41.675781 L 10.609375 40.144531 L 11.964844 38.375 L 13.730469 39.726562 L 12.195312 41.730469 L 12.429688 41.910156 L 12.609375 41.675781 L 12.429688 41.910156 L 12.664062 42.089844 L 14.378906 39.851562 C 14.476562 39.722656 14.453125 39.535156 14.324219 39.4375 L 12.089844 37.726562 C 11.957031 37.625 11.773438 37.652344 11.675781 37.78125 L 9.960938 40.019531 C 9.859375 40.148438 9.886719 40.332031 10.015625 40.433594 L 12.25 42.144531 C 12.3125 42.191406 12.390625 42.214844 12.46875 42.203125 C 12.546875 42.191406 12.617188 42.152344 12.664062 42.089844 L 12.429688 41.910156 "/>
</g>
</g>
</g>
</g>
<g clip-path="url(#clip49)" clip-rule="nonzero">
<g clip-path="url(#clip50)" clip-rule="nonzero">
<g clip-path="url(#clip51)" clip-rule="nonzero">
<g clip-path="url(#clip52)" clip-rule="nonzero">
<path style=" stroke:none;fill-rule:nonzero;fill:rgb(100%,100%,100%);fill-opacity:1;" d="M 17.859375 46.070312 L 15.625 44.355469 L 17.335938 42.117188 L 19.574219 43.832031 L 17.859375 46.070312 "/>
</g>
</g>
</g>
</g>
<g clip-path="url(#clip53)" clip-rule="nonzero">
<g clip-path="url(#clip54)" clip-rule="nonzero">
<g clip-path="url(#clip55)" clip-rule="nonzero">
<g clip-path="url(#clip56)" clip-rule="nonzero">
<path style=" stroke:none;fill-rule:nonzero;fill:rgb(13.72549%,12.156863%,12.54902%);fill-opacity:1;" d="M 17.859375 46.070312 L 18.039062 45.835938 L 16.035156 44.300781 L 17.390625 42.53125 L 19.160156 43.886719 L 17.625 45.890625 L 17.859375 46.070312 L 18.039062 45.835938 L 17.859375 46.070312 L 18.09375 46.25 L 19.808594 44.011719 C 19.855469 43.949219 19.875 43.871094 19.867188 43.792969 C 19.855469 43.714844 19.816406 43.644531 19.753906 43.597656 L 17.515625 41.882812 C 17.386719 41.785156 17.203125 41.808594 17.101562 41.9375 L 15.390625 44.175781 C 15.289062 44.308594 15.3125 44.492188 15.445312 44.589844 L 17.679688 46.304688 C 17.742188 46.351562 17.820312 46.371094 17.898438 46.363281 C 17.976562 46.351562 18.046875 46.3125 18.09375 46.25 L 17.859375 46.070312 "/>
</g>
</g>
</g>
</g>
<g clip-path="url(#clip57)" clip-rule="nonzero">
<g clip-path="url(#clip58)" clip-rule="nonzero">
<g clip-path="url(#clip59)" clip-rule="nonzero">
<g clip-path="url(#clip60)" clip-rule="nonzero">
<path style=" stroke:none;fill-rule:nonzero;fill:rgb(100%,100%,100%);fill-opacity:1;" d="M 23.289062 50.226562 L 21.050781 48.515625 L 22.765625 46.277344 L 25.003906 47.988281 L 23.289062 50.226562 "/>
</g>
</g>
</g>
</g>
<g clip-path="url(#clip61)" clip-rule="nonzero">
<g clip-path="url(#clip62)" clip-rule="nonzero">
<g clip-path="url(#clip63)" clip-rule="nonzero">
<g clip-path="url(#clip64)" clip-rule="nonzero">
<path style=" stroke:none;fill-rule:nonzero;fill:rgb(13.72549%,12.156863%,12.54902%);fill-opacity:1;" d="M 23.289062 50.226562 L 23.46875 49.992188 L 21.464844 48.460938 L 22.820312 46.691406 L 24.589844 48.042969 L 23.054688 50.046875 L 23.289062 50.226562 L 23.46875 49.992188 L 23.289062 50.226562 L 23.523438 50.40625 L 25.238281 48.167969 C 25.285156 48.105469 25.304688 48.027344 25.296875 47.949219 C 25.285156 47.871094 25.246094 47.804688 25.183594 47.753906 L 22.945312 46.042969 C 22.882812 45.996094 22.804688 45.972656 22.726562 45.984375 C 22.652344 45.996094 22.578125 46.035156 22.53125 46.097656 L 20.820312 48.335938 C 20.71875 48.464844 20.742188 48.652344 20.875 48.75 L 23.109375 50.460938 C 23.171875 50.507812 23.25 50.53125 23.328125 50.519531 C 23.40625 50.511719 23.472656 50.46875 23.523438 50.40625 L 23.289062 50.226562 "/>
</g>
</g>
</g>
</g>
<g clip-path="url(#clip65)" clip-rule="nonzero">
<g clip-path="url(#clip66)" clip-rule="nonzero">
<g clip-path="url(#clip67)" clip-rule="nonzero">
<g clip-path="url(#clip68)" clip-rule="nonzero">
<path style=" stroke:none;fill-rule:nonzero;fill:rgb(13.72549%,12.156863%,12.54902%);fill-opacity:1;" d="M 29.613281 34.109375 L 29.003906 33.640625 L 28.535156 34.253906 L 27.921875 33.785156 L 27.453125 34.394531 L 26.839844 33.925781 L 26.371094 34.539062 L 27.59375 35.476562 L 28.207031 35.945312 L 28.675781 35.332031 L 29.144531 34.722656 Z M 23.640625 30.503906 L 23.171875 31.117188 L 22.703125 31.726562 L 23.925781 32.664062 L 24.535156 33.132812 L 25.003906 32.523438 L 24.394531 32.054688 L 24.863281 31.441406 L 24.25 30.972656 L 24.71875 30.359375 L 24.109375 29.890625 Z M 25.71875 37.925781 L 25.105469 37.457031 L 25.578125 36.847656 L 24.964844 36.378906 L 25.433594 35.765625 L 24.820312 35.296875 L 24.210938 34.828125 L 23.597656 34.359375 L 23.128906 34.972656 L 22.515625 34.503906 L 22.046875 35.117188 L 21.4375 34.648438 L 20.96875 35.257812 L 21.578125 35.726562 L 22.046875 35.117188 L 22.660156 35.582031 L 23.128906 34.972656 L 23.742188 35.441406 L 24.351562 35.910156 L 24.964844 36.378906 L 24.496094 36.988281 L 25.105469 37.457031 L 24.636719 38.070312 L 25.25 38.539062 Z M 31.449219 35.515625 L 30.980469 36.125 L 29.105469 38.578125 L 28.636719 39.1875 L 28.167969 39.800781 L 27.554688 39.332031 L 27.085938 39.945312 L 26.472656 39.476562 L 26.003906 40.089844 L 25.394531 39.621094 L 24.921875 40.234375 L 24.3125 39.765625 L 23.84375 40.375 L 22.621094 39.441406 L 22.007812 38.96875 L 21.394531 38.503906 L 20.785156 38.035156 L 19.558594 37.097656 L 20.03125 36.484375 L 19.417969 36.015625 L 19.886719 35.402344 L 19.273438 34.933594 L 19.746094 34.324219 L 19.132812 33.851562 L 19.601562 33.242188 L 18.988281 32.773438 L 19.925781 31.546875 L 20.398438 30.933594 L 20.867188 30.324219 L 22.273438 28.484375 L 22.886719 28.953125 L 23.355469 28.339844 L 23.964844 28.8125 L 24.433594 28.199219 L 25.046875 28.667969 L 25.515625 28.054688 L 26.128906 28.523438 L 26.597656 27.910156 L 25.984375 27.441406 L 26.453125 26.828125 L 25.84375 26.359375 L 26.3125 25.746094 L 25.699219 25.28125 L 26.167969 24.667969 L 27.394531 25.605469 L 26.921875 26.214844 L 27.535156 26.6875 L 27.066406 27.296875 L 27.675781 27.765625 L 27.207031 28.378906 L 27.820312 28.847656 L 29.042969 29.785156 L 29.65625 30.253906 L 30.265625 30.722656 L 30.738281 30.109375 L 31.347656 30.578125 L 31.816406 29.964844 L 32.429688 30.433594 L 32.898438 29.820312 L 34.121094 30.757812 L 33.652344 31.371094 L 33.039062 30.902344 L 32.570312 31.515625 L 31.960938 31.046875 L 31.492188 31.660156 L 30.878906 31.191406 L 30.410156 31.800781 L 31.023438 32.269531 L 30.554688 32.882812 L 31.164062 33.351562 L 30.695312 33.964844 L 31.308594 34.433594 L 30.839844 35.046875 L 31.449219 35.515625 "/>
<path style=" stroke:none;fill-rule:nonzero;fill:rgb(13.72549%,12.156863%,12.54902%);fill-opacity:1;" d="M 29.613281 34.109375 L 29.617188 34.105469 L 29 33.632812 L 28.535156 34.246094 L 27.921875 33.777344 L 27.453125 34.390625 L 26.839844 33.921875 L 26.367188 34.539062 L 26.980469 35.011719 L 27.59375 35.480469 L 28.207031 35.953125 L 29.148438 34.722656 L 29.621094 34.109375 L 29.617188 34.105469 L 29.613281 34.109375 L 29.609375 34.105469 L 28.671875 35.332031 L 28.207031 35.9375 L 26.378906 34.539062 L 26.839844 33.933594 L 27.453125 34.402344 L 27.921875 33.789062 L 28.535156 34.257812 L 29.003906 33.648438 L 29.613281 34.113281 L 29.613281 34.109375 L 29.609375 34.105469 Z M 23.640625 30.503906 L 23.636719 30.5 L 23.167969 31.113281 L 22.695312 31.730469 L 23.308594 32.199219 L 24.539062 33.140625 L 25.011719 32.519531 L 24.398438 32.050781 L 24.871094 31.4375 L 24.257812 30.972656 L 24.726562 30.359375 L 24.109375 29.886719 L 23.636719 30.5 L 23.644531 30.507812 L 24.109375 29.898438 L 24.714844 30.359375 L 24.246094 30.972656 L 24.855469 31.441406 L 24.386719 32.054688 L 25 32.523438 L 24.535156 33.128906 L 23.929688 32.664062 L 22.707031 31.726562 L 23.171875 31.117188 L 23.644531 30.507812 Z M 25.71875 37.925781 L 25.722656 37.921875 L 25.113281 37.457031 L 25.582031 36.84375 L 24.96875 36.375 L 25.441406 35.765625 L 24.214844 34.824219 L 23.597656 34.351562 L 23.128906 34.964844 L 22.515625 34.496094 L 22.046875 35.109375 L 21.4375 34.640625 L 20.960938 35.257812 L 21.578125 35.734375 L 22.050781 35.121094 L 22.660156 35.589844 L 23.128906 34.976562 L 23.738281 35.445312 L 24.351562 35.910156 L 24.957031 36.378906 L 24.488281 36.988281 L 25.101562 37.460938 L 24.632812 38.070312 L 25.25 38.546875 L 25.726562 37.925781 L 25.722656 37.921875 L 25.71875 37.925781 L 25.714844 37.925781 L 25.25 38.535156 L 24.644531 38.070312 L 25.113281 37.457031 L 24.5 36.988281 L 24.96875 36.375 L 24.355469 35.90625 L 23.746094 35.4375 L 23.128906 34.964844 L 22.660156 35.578125 L 22.046875 35.109375 L 21.578125 35.722656 L 20.972656 35.257812 L 21.4375 34.652344 L 22.050781 35.121094 L 22.519531 34.507812 L 23.128906 34.976562 L 23.597656 34.363281 L 24.207031 34.832031 L 24.820312 35.300781 L 25.429688 35.765625 L 24.957031 36.378906 L 25.570312 36.847656 L 25.101562 37.460938 L 25.71875 37.929688 L 25.71875 37.925781 L 25.714844 37.925781 Z M 31.449219 35.515625 L 31.445312 35.511719 L 30.976562 36.125 L 30.507812 36.734375 L 28.632812 39.1875 L 28.164062 39.796875 L 27.554688 39.328125 L 27.085938 39.941406 L 26.472656 39.46875 L 26.003906 40.082031 L 25.390625 39.613281 L 24.921875 40.226562 L 24.3125 39.757812 L 23.84375 40.371094 L 23.234375 39.90625 L 22.007812 38.96875 L 21.398438 38.5 L 20.175781 37.5625 L 19.566406 37.097656 L 20.035156 36.484375 L 19.425781 36.015625 L 19.894531 35.402344 L 19.28125 34.933594 L 19.75 34.320312 L 19.136719 33.851562 L 19.609375 33.238281 L 18.996094 32.769531 L 19.460938 32.164062 L 20.398438 30.9375 L 20.871094 30.324219 L 22.273438 28.492188 L 22.886719 28.960938 L 23.355469 28.347656 L 23.964844 28.816406 L 24.4375 28.203125 L 25.046875 28.671875 L 25.515625 28.058594 L 26.128906 28.527344 L 26.601562 27.910156 L 25.992188 27.441406 L 26.460938 26.828125 L 25.847656 26.359375 L 26.316406 25.746094 L 25.707031 25.277344 L 26.167969 24.671875 L 26.777344 25.140625 L 27.386719 25.605469 L 26.917969 26.21875 L 27.527344 26.6875 L 27.058594 27.296875 L 27.671875 27.765625 L 27.203125 28.378906 L 27.816406 28.851562 L 29.039062 29.789062 L 29.652344 30.257812 L 30.269531 30.726562 L 30.738281 30.113281 L 31.347656 30.585938 L 31.820312 29.972656 L 32.429688 30.441406 L 32.898438 29.828125 L 34.117188 30.757812 L 33.652344 31.363281 L 33.039062 30.894531 L 32.570312 31.507812 L 31.960938 31.039062 L 31.492188 31.652344 L 30.878906 31.183594 L 30.402344 31.804688 L 31.015625 32.273438 L 30.546875 32.886719 L 31.160156 33.351562 L 30.6875 33.964844 L 31.300781 34.433594 L 30.832031 35.046875 L 31.445312 35.519531 L 31.449219 35.515625 L 31.445312 35.511719 L 31.449219 35.515625 L 31.453125 35.511719 L 30.84375 35.042969 L 31.3125 34.433594 L 30.703125 33.964844 L 31.171875 33.351562 L 30.558594 32.882812 L 31.027344 32.269531 L 30.417969 31.800781 L 30.878906 31.195312 L 31.492188 31.664062 L 31.960938 31.050781 L 32.574219 31.519531 L 33.042969 30.910156 L 33.652344 31.375 L 34.128906 30.757812 L 33.511719 30.285156 L 32.898438 29.816406 L 32.429688 30.425781 L 31.816406 29.957031 L 31.347656 30.570312 L 30.734375 30.101562 L 30.265625 30.714844 L 29.660156 30.25 L 28.433594 29.3125 L 27.214844 28.378906 L 27.683594 27.765625 L 27.070312 27.296875 L 27.542969 26.683594 L 26.929688 26.214844 L 27.398438 25.601562 L 26.78125 25.132812 L 26.167969 24.660156 L 25.695312 25.28125 L 26.304688 25.75 L 25.835938 26.363281 L 26.449219 26.828125 L 25.980469 27.441406 L 26.589844 27.910156 L 26.128906 28.515625 L 25.515625 28.046875 L 25.046875 28.660156 L 24.433594 28.191406 L 23.964844 28.804688 L 23.351562 28.335938 L 22.882812 28.949219 L 22.273438 28.480469 L 21.800781 29.09375 L 20.394531 30.933594 L 19.457031 32.15625 L 18.984375 32.773438 L 19.59375 33.242188 L 19.125 33.855469 L 19.738281 34.324219 L 19.269531 34.933594 L 19.878906 35.402344 L 19.410156 36.015625 L 20.023438 36.484375 L 19.554688 37.097656 L 20.167969 37.566406 L 20.78125 38.039062 L 21.394531 38.507812 L 22.003906 38.972656 L 22.617188 39.441406 L 23.84375 40.382812 L 24.3125 39.769531 L 24.925781 40.238281 L 25.394531 39.625 L 26.003906 40.09375 L 26.472656 39.484375 L 27.085938 39.953125 L 27.554688 39.339844 L 28.167969 39.808594 L 29.109375 38.578125 L 29.578125 37.964844 L 30.515625 36.742188 L 30.984375 36.128906 L 31.457031 35.511719 L 31.453125 35.511719 L 31.449219 35.515625 "/>
</g>
</g>
</g>
</g>
</g>
</svg>
