<?xml version="1.0" encoding="UTF-8"?>
<svg xmlns="http://www.w3.org/2000/svg" xmlns:xlink="http://www.w3.org/1999/xlink" width="54px" height="54px" viewBox="0 0 54 54" version="1.1">
<defs>
<clipPath id="clip1">
  <path d="M 11.953125 13.105469 L 50.6875 13.105469 L 50.6875 51.550781 L 11.953125 51.550781 Z M 11.953125 13.105469 "/>
</clipPath>
<clipPath id="clip2">
  <path d="M -10.542969 17.808594 L 20.316406 -10.539062 L 59.257812 31.855469 L 28.394531 60.203125 Z M -10.542969 17.808594 "/>
</clipPath>
<clipPath id="clip3">
  <path d="M -10.542969 17.808594 L 20.316406 -10.539062 L 59.257812 31.855469 L 28.394531 60.203125 Z M -10.542969 17.808594 "/>
</clipPath>
<clipPath id="clip4">
  <path d="M 10.945312 12.097656 L 51.695312 12.097656 L 51.695312 52.558594 L 10.945312 52.558594 Z M 10.945312 12.097656 "/>
</clipPath>
<clipPath id="clip5">
  <path d="M -10.542969 17.808594 L 20.316406 -10.539062 L 59.257812 31.855469 L 28.394531 60.203125 Z M -10.542969 17.808594 "/>
</clipPath>
<clipPath id="clip6">
  <path d="M -10.542969 17.808594 L 20.316406 -10.539062 L 59.257812 31.855469 L 28.394531 60.203125 Z M -10.542969 17.808594 "/>
</clipPath>
<clipPath id="clip7">
  <path d="M 1.871094 1.152344 L 21.886719 1.152344 L 21.886719 21.3125 L 1.871094 21.3125 Z M 1.871094 1.152344 "/>
</clipPath>
<clipPath id="clip8">
  <path d="M -10.542969 17.808594 L 20.316406 -10.539062 L 59.257812 31.855469 L 28.394531 60.203125 Z M -10.542969 17.808594 "/>
</clipPath>
<clipPath id="clip9">
  <path d="M -10.542969 17.808594 L 20.316406 -10.539062 L 59.257812 31.855469 L 28.394531 60.203125 Z M -10.542969 17.808594 "/>
</clipPath>
<clipPath id="clip10">
  <path d="M 1.441406 0.863281 L 22.175781 0.863281 L 22.175781 21.601562 L 1.441406 21.601562 Z M 1.441406 0.863281 "/>
</clipPath>
<clipPath id="clip11">
  <path d="M -10.542969 17.808594 L 20.316406 -10.539062 L 59.257812 31.855469 L 28.394531 60.203125 Z M -10.542969 17.808594 "/>
</clipPath>
<clipPath id="clip12">
  <path d="M -10.542969 17.808594 L 20.316406 -10.539062 L 59.257812 31.855469 L 28.394531 60.203125 Z M -10.542969 17.808594 "/>
</clipPath>
<clipPath id="clip13">
  <path d="M 15.121094 15.121094 L 22 15.121094 L 22 21.886719 L 15.121094 21.886719 Z M 15.121094 15.121094 "/>
</clipPath>
<clipPath id="clip14">
  <path d="M -10.542969 17.808594 L 20.316406 -10.539062 L 59.257812 31.855469 L 28.394531 60.203125 Z M -10.542969 17.808594 "/>
</clipPath>
<clipPath id="clip15">
  <path d="M -10.542969 17.808594 L 20.316406 -10.539062 L 59.257812 31.855469 L 28.394531 60.203125 Z M -10.542969 17.808594 "/>
</clipPath>
<clipPath id="clip16">
  <path d="M 14.832031 14.832031 L 22.320312 14.832031 L 22.320312 22.175781 L 14.832031 22.175781 Z M 14.832031 14.832031 "/>
</clipPath>
<clipPath id="clip17">
  <path d="M -10.542969 17.808594 L 20.316406 -10.539062 L 59.257812 31.855469 L 28.394531 60.203125 Z M -10.542969 17.808594 "/>
</clipPath>
<clipPath id="clip18">
  <path d="M -10.542969 17.808594 L 20.316406 -10.539062 L 59.257812 31.855469 L 28.394531 60.203125 Z M -10.542969 17.808594 "/>
</clipPath>
<clipPath id="clip19">
  <path d="M 12.097656 13.390625 L 50.398438 13.390625 L 50.398438 51.40625 L 12.097656 51.40625 Z M 12.097656 13.390625 "/>
</clipPath>
<clipPath id="clip20">
  <path d="M -10.542969 17.808594 L 20.316406 -10.539062 L 59.257812 31.855469 L 28.394531 60.203125 Z M -10.542969 17.808594 "/>
</clipPath>
<clipPath id="clip21">
  <path d="M -10.542969 17.808594 L 20.316406 -10.539062 L 59.257812 31.855469 L 28.394531 60.203125 Z M -10.542969 17.808594 "/>
</clipPath>
<clipPath id="clip22">
  <path d="M 11.808594 13.105469 L 50.6875 13.105469 L 50.6875 51.695312 L 11.808594 51.695312 Z M 11.808594 13.105469 "/>
</clipPath>
<clipPath id="clip23">
  <path d="M -10.542969 17.808594 L 20.316406 -10.539062 L 59.257812 31.855469 L 28.394531 60.203125 Z M -10.542969 17.808594 "/>
</clipPath>
<clipPath id="clip24">
  <path d="M -10.542969 17.808594 L 20.316406 -10.539062 L 59.257812 31.855469 L 28.394531 60.203125 Z M -10.542969 17.808594 "/>
</clipPath>
<clipPath id="clip25">
  <path d="M 13.679688 15 L 46.945312 15 L 46.945312 47.808594 L 13.679688 47.808594 Z M 13.679688 15 "/>
</clipPath>
<clipPath id="clip26">
  <path d="M -10.542969 17.808594 L 20.316406 -10.539062 L 59.257812 31.855469 L 28.394531 60.203125 Z M -10.542969 17.808594 "/>
</clipPath>
<clipPath id="clip27">
  <path d="M -10.542969 17.808594 L 20.316406 -10.539062 L 59.257812 31.855469 L 28.394531 60.203125 Z M -10.542969 17.808594 "/>
</clipPath>
<clipPath id="clip28">
  <path d="M 13.390625 14.6875 L 47.375 14.6875 L 47.375 48.097656 L 13.390625 48.097656 Z M 13.390625 14.6875 "/>
</clipPath>
<clipPath id="clip29">
  <path d="M -10.542969 17.808594 L 20.316406 -10.539062 L 59.257812 31.855469 L 28.394531 60.203125 Z M -10.542969 17.808594 "/>
</clipPath>
<clipPath id="clip30">
  <path d="M -10.542969 17.808594 L 20.316406 -10.539062 L 59.257812 31.855469 L 28.394531 60.203125 Z M -10.542969 17.808594 "/>
</clipPath>
<clipPath id="clip31">
  <path d="M 16.703125 17.855469 L 44.0625 17.855469 L 44.0625 44.929688 L 16.703125 44.929688 Z M 16.703125 17.855469 "/>
</clipPath>
<clipPath id="clip32">
  <path d="M -10.542969 17.808594 L 20.316406 -10.539062 L 59.257812 31.855469 L 28.394531 60.203125 Z M -10.542969 17.808594 "/>
</clipPath>
<clipPath id="clip33">
  <path d="M -10.542969 17.808594 L 20.316406 -10.539062 L 59.257812 31.855469 L 28.394531 60.203125 Z M -10.542969 17.808594 "/>
</clipPath>
<clipPath id="clip34">
  <path d="M 16.273438 17.566406 L 44.496094 17.566406 L 44.496094 45.214844 L 16.273438 45.214844 Z M 16.273438 17.566406 "/>
</clipPath>
<clipPath id="clip35">
  <path d="M -10.542969 17.808594 L 20.316406 -10.539062 L 59.257812 31.855469 L 28.394531 60.203125 Z M -10.542969 17.808594 "/>
</clipPath>
<clipPath id="clip36">
  <path d="M -10.542969 17.808594 L 20.316406 -10.539062 L 59.257812 31.855469 L 28.394531 60.203125 Z M -10.542969 17.808594 "/>
</clipPath>
<clipPath id="clip37">
  <path d="M 32.542969 43.921875 L 36.574219 43.921875 L 36.574219 47.953125 L 32.542969 47.953125 Z M 32.542969 43.921875 "/>
</clipPath>
<clipPath id="clip38">
  <path d="M -10.542969 17.808594 L 20.316406 -10.539062 L 59.257812 31.855469 L 28.394531 60.203125 Z M -10.542969 17.808594 "/>
</clipPath>
<clipPath id="clip39">
  <path d="M -10.542969 17.808594 L 20.316406 -10.539062 L 59.257812 31.855469 L 28.394531 60.203125 Z M -10.542969 17.808594 "/>
</clipPath>
<clipPath id="clip40">
  <path d="M 32.257812 43.632812 L 36.863281 43.632812 L 36.863281 48.238281 L 32.257812 48.238281 Z M 32.257812 43.632812 "/>
</clipPath>
<clipPath id="clip41">
  <path d="M -10.542969 17.808594 L 20.316406 -10.539062 L 59.257812 31.855469 L 28.394531 60.203125 Z M -10.542969 17.808594 "/>
</clipPath>
<clipPath id="clip42">
  <path d="M -10.542969 17.808594 L 20.316406 -10.539062 L 59.257812 31.855469 L 28.394531 60.203125 Z M -10.542969 17.808594 "/>
</clipPath>
<clipPath id="clip43">
  <path d="M 37.441406 39.3125 L 41.472656 39.3125 L 41.472656 43.34375 L 37.441406 43.34375 Z M 37.441406 39.3125 "/>
</clipPath>
<clipPath id="clip44">
  <path d="M -10.542969 17.808594 L 20.316406 -10.539062 L 59.257812 31.855469 L 28.394531 60.203125 Z M -10.542969 17.808594 "/>
</clipPath>
<clipPath id="clip45">
  <path d="M -10.542969 17.808594 L 20.316406 -10.539062 L 59.257812 31.855469 L 28.394531 60.203125 Z M -10.542969 17.808594 "/>
</clipPath>
<clipPath id="clip46">
  <path d="M 37.152344 39.023438 L 41.761719 39.023438 L 41.761719 43.632812 L 37.152344 43.632812 Z M 37.152344 39.023438 "/>
</clipPath>
<clipPath id="clip47">
  <path d="M -10.542969 17.808594 L 20.316406 -10.539062 L 59.257812 31.855469 L 28.394531 60.203125 Z M -10.542969 17.808594 "/>
</clipPath>
<clipPath id="clip48">
  <path d="M -10.542969 17.808594 L 20.316406 -10.539062 L 59.257812 31.855469 L 28.394531 60.203125 Z M -10.542969 17.808594 "/>
</clipPath>
<clipPath id="clip49">
  <path d="M 42.480469 34.703125 L 46.511719 34.703125 L 46.511719 38.734375 L 42.480469 38.734375 Z M 42.480469 34.703125 "/>
</clipPath>
<clipPath id="clip50">
  <path d="M -10.542969 17.808594 L 20.316406 -10.539062 L 59.257812 31.855469 L 28.394531 60.203125 Z M -10.542969 17.808594 "/>
</clipPath>
<clipPath id="clip51">
  <path d="M -10.542969 17.808594 L 20.316406 -10.539062 L 59.257812 31.855469 L 28.394531 60.203125 Z M -10.542969 17.808594 "/>
</clipPath>
<clipPath id="clip52">
  <path d="M 42.191406 34.414062 L 46.800781 34.414062 L 46.800781 39.023438 L 42.191406 39.023438 Z M 42.191406 34.414062 "/>
</clipPath>
<clipPath id="clip53">
  <path d="M -10.542969 17.808594 L 20.316406 -10.539062 L 59.257812 31.855469 L 28.394531 60.203125 Z M -10.542969 17.808594 "/>
</clipPath>
<clipPath id="clip54">
  <path d="M -10.542969 17.808594 L 20.316406 -10.539062 L 59.257812 31.855469 L 28.394531 60.203125 Z M -10.542969 17.808594 "/>
</clipPath>
<clipPath id="clip55">
  <path d="M 22.03125 22.894531 L 37.152344 22.894531 L 37.152344 38.304688 L 22.03125 38.304688 Z M 22.03125 22.894531 "/>
</clipPath>
<clipPath id="clip56">
  <path d="M -10.542969 17.808594 L 20.316406 -10.539062 L 59.257812 31.855469 L 28.394531 60.203125 Z M -10.542969 17.808594 "/>
</clipPath>
<clipPath id="clip57">
  <path d="M -10.542969 17.808594 L 20.316406 -10.539062 L 59.257812 31.855469 L 28.394531 60.203125 Z M -10.542969 17.808594 "/>
</clipPath>
</defs>
<g id="surface1">
<g clip-path="url(#clip1)" clip-rule="nonzero">
<g clip-path="url(#clip2)" clip-rule="nonzero">
<g clip-path="url(#clip3)" clip-rule="nonzero">
<path style=" stroke:none;fill-rule:nonzero;fill:rgb(100%,100%,100%);fill-opacity:1;" d="M 17.554688 19.429688 C 17.050781 18.878906 17.085938 18.023438 17.636719 17.519531 C 18.1875 17.015625 19.042969 17.050781 19.546875 17.597656 C 19.925781 18.011719 20 18.59375 19.78125 19.074219 L 19.007812 19.785156 C 18.507812 19.964844 17.933594 19.839844 17.554688 19.429688 Z M 21.941406 17.132812 C 21.78125 16.742188 21.550781 16.367188 21.246094 16.039062 C 19.882812 14.550781 17.5625 14.453125 16.078125 15.820312 C 14.589844 17.183594 14.488281 19.503906 15.855469 20.992188 C 16.160156 21.320312 16.511719 21.582031 16.886719 21.773438 C 10.472656 28.402344 10.253906 39 16.570312 45.875 C 23.125 53.007812 34.261719 53.480469 41.398438 46.921875 L 44.917969 43.691406 C 52.054688 37.132812 52.535156 25.996094 45.980469 18.863281 C 39.664062 11.984375 29.089844 11.304688 21.941406 17.132812 "/>
</g>
</g>
</g>
<g clip-path="url(#clip4)" clip-rule="nonzero">
<g clip-path="url(#clip5)" clip-rule="nonzero">
<g clip-path="url(#clip6)" clip-rule="nonzero">
<path style=" stroke:none;fill-rule:nonzero;fill:rgb(12.54902%,16.078431%,32.941176%);fill-opacity:1;" d="M 17.554688 19.429688 L 18.277344 18.765625 C 18.210938 18.6875 18.179688 18.597656 18.183594 18.5 C 18.1875 18.402344 18.226562 18.3125 18.300781 18.242188 C 18.378906 18.171875 18.46875 18.144531 18.566406 18.144531 C 18.664062 18.152344 18.753906 18.1875 18.824219 18.265625 C 18.875 18.324219 18.90625 18.386719 18.914062 18.457031 C 18.925781 18.527344 18.914062 18.605469 18.886719 18.667969 L 19.78125 19.074219 L 19.117188 18.351562 L 18.339844 19.0625 L 19.007812 19.785156 L 18.675781 18.859375 C 18.609375 18.886719 18.535156 18.890625 18.464844 18.871094 C 18.394531 18.855469 18.332031 18.824219 18.277344 18.765625 L 16.832031 20.09375 C 17.15625 20.449219 17.570312 20.683594 18.007812 20.785156 C 18.445312 20.886719 18.90625 20.867188 19.335938 20.714844 C 19.460938 20.667969 19.574219 20.601562 19.671875 20.511719 L 20.445312 19.800781 C 20.542969 19.710938 20.621094 19.601562 20.675781 19.480469 C 20.863281 19.066406 20.925781 18.609375 20.859375 18.164062 C 20.792969 17.722656 20.597656 17.289062 20.269531 16.933594 C 19.835938 16.460938 19.246094 16.207031 18.652344 16.183594 C 18.058594 16.15625 17.445312 16.359375 16.972656 16.796875 C 16.5 17.230469 16.242188 17.820312 16.21875 18.417969 C 16.191406 19.007812 16.394531 19.621094 16.832031 20.09375 Z M 21.941406 17.132812 L 22.851562 16.765625 C 22.648438 16.265625 22.355469 15.792969 21.972656 15.371094 C 21.105469 14.429688 19.933594 13.925781 18.75 13.878906 C 17.566406 13.828125 16.351562 14.230469 15.410156 15.097656 C 14.46875 15.960938 13.964844 17.136719 13.914062 18.320312 C 13.863281 19.503906 14.265625 20.714844 15.128906 21.65625 C 15.515625 22.074219 15.960938 22.40625 16.441406 22.652344 L 16.886719 21.773438 L 16.183594 21.09375 C 12.792969 24.589844 11.042969 29.140625 10.972656 33.71875 C 10.902344 38.292969 12.511719 42.910156 15.847656 46.539062 C 19.304688 50.304688 23.980469 52.316406 28.722656 52.515625 C 33.464844 52.714844 38.296875 51.105469 42.0625 47.644531 L 45.582031 44.414062 C 49.351562 40.953125 51.363281 36.277344 51.566406 31.535156 C 51.769531 26.792969 50.164062 21.960938 46.703125 18.199219 C 43.371094 14.566406 38.90625 12.570312 34.34375 12.253906 C 29.777344 11.933594 25.09375 13.292969 21.320312 16.375 L 21.941406 17.132812 L 22.851562 16.765625 L 21.941406 17.132812 L 22.5625 17.894531 C 25.9375 15.144531 30.117188 13.929688 34.203125 14.214844 C 38.292969 14.5 42.273438 16.28125 45.257812 19.527344 C 48.351562 22.898438 49.78125 27.203125 49.601562 31.453125 C 49.417969 35.699219 47.625 39.871094 44.253906 42.964844 L 40.734375 46.199219 C 37.363281 49.292969 33.054688 50.726562 28.808594 50.550781 C 24.558594 50.371094 20.390625 48.578125 17.296875 45.210938 C 14.3125 41.960938 12.875 37.84375 12.9375 33.746094 C 13 29.648438 14.566406 25.585938 17.59375 22.457031 C 17.8125 22.234375 17.910156 21.921875 17.859375 21.613281 C 17.804688 21.304688 17.613281 21.039062 17.335938 20.898438 C 17.058594 20.757812 16.800781 20.570312 16.578125 20.324219 C 16.078125 19.78125 15.847656 19.089844 15.878906 18.402344 C 15.910156 17.710938 16.195312 17.042969 16.742188 16.542969 C 17.285156 16.042969 17.976562 15.8125 18.664062 15.839844 C 19.355469 15.871094 20.023438 16.160156 20.523438 16.703125 C 20.746094 16.945312 20.914062 17.214844 21.03125 17.503906 C 21.148438 17.792969 21.394531 18.007812 21.699219 18.085938 C 22 18.164062 22.320312 18.09375 22.5625 17.894531 L 21.941406 17.132812 "/>
</g>
</g>
</g>
<g clip-path="url(#clip7)" clip-rule="nonzero">
<g clip-path="url(#clip8)" clip-rule="nonzero">
<g clip-path="url(#clip9)" clip-rule="nonzero">
<path style=" stroke:none;fill-rule:nonzero;fill:rgb(12.54902%,16.078431%,32.941176%);fill-opacity:1;" d="M 5.476562 4.28125 C 1.636719 7.808594 1.378906 13.796875 4.90625 17.636719 C 8.429688 21.472656 14.421875 21.726562 18.261719 18.199219 C 22.101562 14.671875 22.359375 8.679688 18.832031 4.84375 C 15.308594 1.003906 9.316406 0.753906 5.476562 4.28125 Z M 18.621094 18.589844 C 14.5625 22.3125 8.238281 22.046875 4.515625 17.996094 C 0.792969 13.941406 1.0625 7.613281 5.117188 3.890625 C 9.171875 0.164062 15.5 0.433594 19.222656 4.484375 C 22.945312 8.535156 22.675781 14.863281 18.621094 18.589844 "/>
</g>
</g>
</g>
<g clip-path="url(#clip10)" clip-rule="nonzero">
<g clip-path="url(#clip11)" clip-rule="nonzero">
<g clip-path="url(#clip12)" clip-rule="nonzero">
<path style=" stroke:none;fill-rule:nonzero;fill:rgb(12.54902%,16.078431%,32.941176%);fill-opacity:1;" d="M 5.199219 5.042969 C 4.960938 5.261719 4.585938 5.269531 4.351562 5.042969 C 4.105469 4.808594 4.085938 4.425781 4.320312 4.175781 L 4.339844 4.160156 C 4.578125 3.914062 4.96875 3.90625 5.214844 4.144531 C 5.457031 4.378906 5.464844 4.773438 5.226562 5.015625 Z M 7.265625 3.386719 C 7.234375 3.414062 7.203125 3.4375 7.167969 3.457031 L 7.148438 3.472656 C 6.851562 3.648438 6.472656 3.550781 6.300781 3.257812 C 6.125 2.964844 6.222656 2.582031 6.515625 2.410156 L 6.832031 2.941406 L 6.523438 2.402344 C 6.816406 2.226562 7.195312 2.316406 7.375 2.609375 C 7.53125 2.867188 7.476562 3.191406 7.265625 3.386719 Z M 3.65625 7.195312 C 3.46875 7.367188 3.183594 7.417969 2.949219 7.292969 C 2.648438 7.132812 2.527344 6.769531 2.683594 6.464844 L 2.691406 6.449219 C 2.851562 6.148438 3.226562 6.03125 3.527344 6.191406 C 3.828125 6.347656 3.945312 6.722656 3.789062 7.023438 C 3.753906 7.089844 3.707031 7.148438 3.65625 7.195312 Z M 9.699219 2.347656 C 9.625 2.414062 9.535156 2.464844 9.433594 2.492188 C 9.105469 2.582031 8.761719 2.390625 8.667969 2.0625 C 8.578125 1.734375 8.769531 1.394531 9.097656 1.304688 L 9.125 1.296875 C 9.457031 1.207031 9.792969 1.40625 9.878906 1.738281 C 9.9375 1.96875 9.859375 2.199219 9.699219 2.347656 Z M 2.753906 9.695312 C 2.609375 9.828125 2.40625 9.890625 2.203125 9.84375 C 1.871094 9.773438 1.65625 9.445312 1.730469 9.113281 L 2.332031 9.242188 L 1.730469 9.097656 C 1.800781 8.761719 2.128906 8.546875 2.464844 8.617188 C 2.800781 8.6875 3.011719 9.015625 2.941406 9.351562 L 2.9375 9.371094 C 2.910156 9.5 2.84375 9.613281 2.753906 9.695312 Z M 12.320312 2.007812 C 12.207031 2.109375 12.054688 2.171875 11.890625 2.167969 C 11.550781 2.160156 11.273438 1.882812 11.277344 1.542969 C 11.28125 1.207031 11.546875 0.933594 11.886719 0.933594 L 11.917969 0.933594 C 12.257812 0.941406 12.53125 1.222656 12.523438 1.566406 C 12.519531 1.738281 12.441406 1.898438 12.320312 2.007812 Z M 2.554688 12.332031 C 2.453125 12.425781 2.320312 12.488281 2.175781 12.496094 C 1.835938 12.515625 1.542969 12.257812 1.519531 11.917969 L 2.136719 11.878906 L 1.519531 11.902344 C 1.496094 11.558594 1.757812 11.265625 2.097656 11.246094 C 2.4375 11.222656 2.730469 11.480469 2.753906 11.820312 L 2.753906 11.839844 C 2.765625 12.035156 2.6875 12.210938 2.554688 12.332031 Z M 14.9375 2.382812 C 14.785156 2.519531 14.570312 2.582031 14.359375 2.523438 L 14.332031 2.515625 C 14.003906 2.417969 13.816406 2.074219 13.910156 1.75 C 14.007812 1.421875 14.351562 1.230469 14.679688 1.328125 L 14.503906 1.921875 L 14.683594 1.328125 C 15.011719 1.421875 15.207031 1.761719 15.117188 2.089844 C 15.082031 2.207031 15.019531 2.304688 14.9375 2.382812 Z M 3.066406 14.921875 C 3.007812 14.976562 2.9375 15.019531 2.859375 15.046875 C 2.535156 15.160156 2.1875 15 2.074219 14.675781 L 2.066406 14.65625 C 1.957031 14.335938 2.128906 13.980469 2.449219 13.871094 C 2.773438 13.761719 3.125 13.929688 3.238281 14.253906 C 3.320312 14.496094 3.246094 14.757812 3.066406 14.921875 Z M 17.359375 3.449219 C 17.160156 3.632812 16.855469 3.667969 16.613281 3.515625 C 16.324219 3.335938 16.230469 2.953125 16.40625 2.664062 C 16.585938 2.375 16.957031 2.28125 17.246094 2.453125 L 17.269531 2.46875 C 17.558594 2.652344 17.648438 3.03125 17.464844 3.324219 C 17.433594 3.371094 17.398438 3.414062 17.359375 3.449219 Z M 4.28125 17.28125 C 4.261719 17.300781 4.238281 17.316406 4.214844 17.335938 C 3.933594 17.53125 3.546875 17.460938 3.355469 17.179688 L 3.859375 16.828125 L 3.34375 17.167969 C 3.148438 16.886719 3.214844 16.503906 3.496094 16.308594 C 3.777344 16.109375 4.160156 16.179688 4.355469 16.457031 L 4.367188 16.472656 C 4.546875 16.730469 4.503906 17.078125 4.28125 17.28125 Z M 19.425781 5.160156 C 19.175781 5.390625 18.785156 5.375 18.554688 5.125 L 18.53125 5.101562 L 18.515625 5.082031 C 18.28125 4.832031 18.300781 4.4375 18.550781 4.207031 C 18.800781 3.976562 19.195312 3.992188 19.425781 4.246094 L 19.429688 4.25 L 19.464844 4.289062 C 19.695312 4.539062 19.679688 4.929688 19.425781 5.160156 Z M 6.070312 19.226562 C 5.847656 19.433594 5.496094 19.445312 5.257812 19.246094 L 5.652344 18.769531 L 5.25 19.242188 C 4.984375 19.027344 4.945312 18.636719 5.160156 18.371094 C 5.375 18.105469 5.765625 18.066406 6.03125 18.28125 L 6.050781 18.296875 C 6.3125 18.515625 6.347656 18.90625 6.128906 19.167969 C 6.109375 19.1875 6.09375 19.207031 6.070312 19.226562 Z M 20.929688 7.335938 C 20.890625 7.375 20.84375 7.40625 20.789062 7.433594 C 20.484375 7.585938 20.113281 7.460938 19.960938 7.15625 C 19.808594 6.851562 19.925781 6.472656 20.230469 6.320312 C 20.535156 6.167969 20.902344 6.277344 21.054688 6.582031 L 21.066406 6.605469 C 21.191406 6.855469 21.128906 7.152344 20.929688 7.335938 Z M 8.3125 20.617188 C 8.136719 20.773438 7.882812 20.828125 7.652344 20.726562 L 7.636719 20.71875 C 7.324219 20.582031 7.183594 20.214844 7.320312 19.902344 C 7.460938 19.589844 7.824219 19.449219 8.136719 19.585938 C 8.449219 19.726562 8.597656 20.09375 8.460938 20.40625 C 8.425781 20.488281 8.371094 20.558594 8.3125 20.617188 Z M 21.789062 9.835938 C 21.707031 9.914062 21.605469 9.964844 21.488281 9.988281 C 21.152344 10.050781 20.828125 9.832031 20.765625 9.496094 C 20.703125 9.164062 20.917969 8.832031 21.253906 8.765625 C 21.585938 8.699219 21.910156 8.90625 21.976562 9.242188 L 21.980469 9.265625 C 22.023438 9.484375 21.941406 9.695312 21.789062 9.835938 Z M 10.863281 21.34375 C 10.730469 21.464844 10.546875 21.527344 10.355469 21.5 L 10.445312 20.886719 L 10.34375 21.496094 C 10.003906 21.449219 9.769531 21.140625 9.816406 20.800781 C 9.863281 20.460938 10.175781 20.226562 10.511719 20.273438 L 10.535156 20.277344 C 10.875 20.324219 11.109375 20.640625 11.058594 20.976562 C 11.035156 21.125 10.964844 21.25 10.863281 21.34375 Z M 21.941406 12.472656 C 21.820312 12.585938 21.660156 12.648438 21.484375 12.636719 C 21.144531 12.613281 20.886719 12.324219 20.910156 11.984375 L 20.910156 11.953125 C 20.9375 11.613281 21.238281 11.359375 21.578125 11.386719 C 21.917969 11.417969 22.171875 11.714844 22.144531 12.054688 L 21.527344 12.003906 L 22.140625 12.0625 C 22.128906 12.226562 22.054688 12.371094 21.941406 12.472656 Z M 13.503906 21.363281 C 13.414062 21.445312 13.300781 21.5 13.175781 21.519531 L 13.144531 21.523438 C 12.804688 21.558594 12.5 21.316406 12.460938 20.976562 C 12.421875 20.640625 12.664062 20.332031 13.003906 20.292969 C 13.339844 20.253906 13.65625 20.492188 13.695312 20.828125 C 13.722656 21.039062 13.644531 21.234375 13.503906 21.363281 Z M 21.382812 15.0625 C 21.21875 15.210938 20.980469 15.269531 20.757812 15.191406 C 20.4375 15.078125 20.265625 14.722656 20.382812 14.402344 L 20.390625 14.378906 C 20.507812 14.058594 20.863281 13.894531 21.183594 14.007812 C 21.503906 14.128906 21.667969 14.480469 21.550781 14.804688 L 20.96875 14.589844 L 21.546875 14.8125 C 21.511719 14.910156 21.453125 14.996094 21.382812 15.0625 "/>
</g>
</g>
</g>
<g clip-path="url(#clip13)" clip-rule="nonzero">
<g clip-path="url(#clip14)" clip-rule="nonzero">
<g clip-path="url(#clip15)" clip-rule="nonzero">
<path style=" stroke:none;fill-rule:nonzero;fill:rgb(69.019608%,52.941176%,89.803922%);fill-opacity:1;" d="M 19.664062 19.722656 C 18.996094 20.339844 17.953125 20.296875 17.339844 19.625 C 16.726562 18.957031 16.773438 17.917969 17.441406 17.304688 C 18.109375 16.691406 19.148438 16.734375 19.761719 17.402344 C 20.375 18.070312 20.332031 19.109375 19.664062 19.722656 Z M 16.273438 16.035156 C 14.902344 17.292969 14.8125 19.421875 16.070312 20.792969 C 17.328125 22.164062 19.457031 22.253906 20.828125 20.992188 C 22.199219 19.734375 22.289062 17.605469 21.03125 16.234375 C 19.773438 14.863281 17.644531 14.777344 16.273438 16.035156 "/>
</g>
</g>
</g>
<g clip-path="url(#clip16)" clip-rule="nonzero">
<g clip-path="url(#clip17)" clip-rule="nonzero">
<g clip-path="url(#clip18)" clip-rule="nonzero">
<path style=" stroke:none;fill-rule:nonzero;fill:rgb(12.54902%,16.078431%,32.941176%);fill-opacity:1;" d="M 19.664062 19.722656 L 19.464844 19.507812 C 19.191406 19.761719 18.839844 19.878906 18.492188 19.867188 C 18.148438 19.851562 17.808594 19.703125 17.554688 19.429688 C 17.300781 19.152344 17.1875 18.804688 17.199219 18.457031 C 17.214844 18.109375 17.363281 17.773438 17.636719 17.519531 C 17.914062 17.265625 18.261719 17.148438 18.609375 17.164062 C 18.957031 17.179688 19.292969 17.324219 19.546875 17.597656 C 19.800781 17.875 19.917969 18.226562 19.902344 18.570312 C 19.886719 18.917969 19.742188 19.257812 19.464844 19.507812 L 19.859375 19.9375 C 20.648438 19.214844 20.699219 17.992188 19.976562 17.207031 C 19.253906 16.417969 18.03125 16.367188 17.242188 17.089844 C 16.457031 17.8125 16.402344 19.035156 17.125 19.824219 C 17.847656 20.609375 19.070312 20.664062 19.859375 19.9375 Z M 16.273438 16.035156 L 16.078125 15.820312 C 14.585938 17.1875 14.488281 19.503906 15.855469 20.992188 C 17.222656 22.480469 19.535156 22.578125 21.027344 21.210938 C 22.515625 19.839844 22.613281 17.527344 21.246094 16.039062 C 19.878906 14.550781 17.566406 14.453125 16.078125 15.820312 L 16.472656 16.25 C 17.097656 15.671875 17.894531 15.40625 18.683594 15.441406 C 19.46875 15.472656 20.242188 15.804688 20.816406 16.433594 C 21.394531 17.058594 21.660156 17.855469 21.625 18.644531 C 21.589844 19.429688 21.257812 20.203125 20.632812 20.78125 C 20.003906 21.355469 19.207031 21.621094 18.417969 21.589844 C 17.632812 21.554688 16.859375 21.222656 16.285156 20.597656 C 15.710938 19.96875 15.445312 19.171875 15.476562 18.382812 C 15.511719 17.597656 15.84375 16.824219 16.472656 16.25 L 16.273438 16.035156 "/>
</g>
</g>
</g>
<g clip-path="url(#clip19)" clip-rule="nonzero">
<g clip-path="url(#clip20)" clip-rule="nonzero">
<g clip-path="url(#clip21)" clip-rule="nonzero">
<path style=" stroke:none;fill-rule:nonzero;fill:rgb(69.019608%,52.941176%,89.803922%);fill-opacity:1;" d="M 45.765625 19.058594 C 52.21875 26.085938 51.753906 37.015625 44.722656 43.476562 L 41.203125 46.707031 C 34.171875 53.164062 23.238281 52.703125 16.785156 45.679688 C 10.332031 38.652344 10.800781 27.71875 17.832031 21.261719 L 21.351562 18.03125 C 28.382812 11.574219 39.3125 12.035156 45.765625 19.058594 "/>
</g>
</g>
</g>
<g clip-path="url(#clip22)" clip-rule="nonzero">
<g clip-path="url(#clip23)" clip-rule="nonzero">
<g clip-path="url(#clip24)" clip-rule="nonzero">
<path style=" stroke:none;fill-rule:nonzero;fill:rgb(12.54902%,16.078431%,32.941176%);fill-opacity:1;" d="M 45.765625 19.058594 L 45.550781 19.257812 C 48.722656 22.710938 50.195312 27.125 50.007812 31.46875 C 49.824219 35.8125 47.980469 40.085938 44.523438 43.261719 L 41.003906 46.492188 C 37.546875 49.667969 33.136719 51.140625 28.789062 50.957031 C 24.445312 50.773438 20.175781 48.933594 17 45.480469 C 13.828125 42.027344 12.359375 37.613281 12.542969 33.269531 C 12.730469 28.925781 14.570312 24.652344 18.027344 21.476562 L 21.546875 18.246094 C 25.003906 15.070312 29.417969 13.597656 33.761719 13.78125 C 38.105469 13.964844 42.378906 15.804688 45.550781 19.257812 L 45.980469 18.863281 C 39.417969 11.71875 28.304688 11.25 21.152344 17.816406 L 17.632812 21.046875 C 10.484375 27.613281 10.007812 38.730469 16.570312 45.875 C 23.132812 53.019531 34.25 53.488281 41.398438 46.921875 L 44.917969 43.691406 C 52.070312 37.121094 52.542969 26.007812 45.980469 18.863281 L 45.765625 19.058594 "/>
</g>
</g>
</g>
<g clip-path="url(#clip25)" clip-rule="nonzero">
<g clip-path="url(#clip26)" clip-rule="nonzero">
<g clip-path="url(#clip27)" clip-rule="nonzero">
<path style=" stroke:none;fill-rule:nonzero;fill:rgb(52.54902%,47.843137%,93.333333%);fill-opacity:1;" d="M 46.910156 29.75 L 27.339844 47.722656 L 13.816406 33 L 33.386719 15.023438 L 46.910156 29.75 "/>
</g>
</g>
</g>
<g clip-path="url(#clip28)" clip-rule="nonzero">
<g clip-path="url(#clip29)" clip-rule="nonzero">
<g clip-path="url(#clip30)" clip-rule="nonzero">
<path style=" stroke:none;fill-rule:nonzero;fill:rgb(12.54902%,16.078431%,32.941176%);fill-opacity:1;" d="M 46.910156 29.75 L 46.691406 29.511719 L 27.359375 47.265625 L 14.273438 33.019531 L 33.367188 15.480469 L 46.671875 29.96875 L 46.910156 29.75 L 46.691406 29.511719 L 46.910156 29.75 L 47.148438 29.53125 L 33.625 14.804688 C 33.566406 14.742188 33.484375 14.703125 33.398438 14.699219 C 33.3125 14.695312 33.230469 14.726562 33.167969 14.785156 L 13.597656 32.761719 C 13.535156 32.816406 13.496094 32.898438 13.492188 32.984375 C 13.488281 33.070312 13.519531 33.15625 13.578125 33.21875 L 27.101562 47.941406 C 27.160156 48.003906 27.242188 48.042969 27.324219 48.046875 C 27.410156 48.050781 27.496094 48.019531 27.558594 47.960938 L 47.128906 29.988281 C 47.191406 29.929688 47.230469 29.847656 47.234375 29.761719 C 47.238281 29.675781 47.207031 29.59375 47.148438 29.53125 L 46.910156 29.75 "/>
</g>
</g>
</g>
<g clip-path="url(#clip31)" clip-rule="nonzero">
<g clip-path="url(#clip32)" clip-rule="nonzero">
<g clip-path="url(#clip33)" clip-rule="nonzero">
<path style=" stroke:none;fill-rule:nonzero;fill:rgb(100%,100%,100%);fill-opacity:1;" d="M 44.011719 29.648438 L 27.484375 44.828125 L 16.714844 33.101562 L 33.238281 17.921875 L 44.011719 29.648438 "/>
</g>
</g>
</g>
<g clip-path="url(#clip34)" clip-rule="nonzero">
<g clip-path="url(#clip35)" clip-rule="nonzero">
<g clip-path="url(#clip36)" clip-rule="nonzero">
<path style=" stroke:none;fill-rule:nonzero;fill:rgb(12.54902%,16.078431%,32.941176%);fill-opacity:1;" d="M 44.011719 29.648438 L 43.777344 29.394531 L 27.503906 44.339844 L 17.203125 33.121094 L 33.21875 18.410156 L 43.757812 29.882812 L 44.011719 29.648438 L 43.777344 29.394531 L 44.011719 29.648438 L 44.265625 29.414062 L 33.496094 17.6875 C 33.433594 17.617188 33.34375 17.578125 33.253906 17.574219 C 33.164062 17.570312 33.074219 17.605469 33.003906 17.664062 L 16.480469 32.84375 C 16.410156 32.90625 16.371094 32.992188 16.367188 33.085938 C 16.363281 33.175781 16.394531 33.265625 16.457031 33.332031 L 27.230469 45.0625 C 27.292969 45.128906 27.378906 45.167969 27.46875 45.171875 C 27.5625 45.175781 27.652344 45.144531 27.71875 45.082031 L 44.246094 29.902344 C 44.3125 29.839844 44.351562 29.753906 44.355469 29.664062 C 44.359375 29.570312 44.328125 29.480469 44.265625 29.414062 L 44.011719 29.648438 "/>
</g>
</g>
</g>
<g clip-path="url(#clip37)" clip-rule="nonzero">
<g clip-path="url(#clip38)" clip-rule="nonzero">
<g clip-path="url(#clip39)" clip-rule="nonzero">
<path style=" stroke:none;fill-rule:nonzero;fill:rgb(52.54902%,47.843137%,93.333333%);fill-opacity:1;" d="M 36.488281 45.980469 L 34.441406 47.863281 L 32.558594 45.816406 L 34.605469 43.933594 L 36.488281 45.980469 "/>
</g>
</g>
</g>
<g clip-path="url(#clip40)" clip-rule="nonzero">
<g clip-path="url(#clip41)" clip-rule="nonzero">
<g clip-path="url(#clip42)" clip-rule="nonzero">
<path style=" stroke:none;fill-rule:nonzero;fill:rgb(12.54902%,16.078431%,32.941176%);fill-opacity:1;" d="M 36.488281 45.980469 L 36.292969 45.765625 L 34.457031 47.453125 L 32.96875 45.832031 L 34.589844 44.34375 L 36.273438 46.179688 L 36.488281 45.980469 L 36.292969 45.765625 L 36.488281 45.980469 L 36.703125 45.785156 L 34.820312 43.734375 C 34.769531 43.679688 34.695312 43.644531 34.621094 43.640625 C 34.542969 43.636719 34.464844 43.664062 34.410156 43.71875 L 32.359375 45.601562 C 32.304688 45.652344 32.269531 45.726562 32.265625 45.800781 C 32.261719 45.878906 32.289062 45.957031 32.34375 46.011719 L 34.226562 48.0625 C 34.277344 48.117188 34.351562 48.152344 34.425781 48.15625 C 34.503906 48.160156 34.582031 48.128906 34.636719 48.078125 L 36.6875 46.195312 C 36.742188 46.144531 36.777344 46.070312 36.78125 45.992188 C 36.785156 45.917969 36.753906 45.839844 36.703125 45.785156 L 36.488281 45.980469 "/>
</g>
</g>
</g>
<g clip-path="url(#clip43)" clip-rule="nonzero">
<g clip-path="url(#clip44)" clip-rule="nonzero">
<g clip-path="url(#clip45)" clip-rule="nonzero">
<path style=" stroke:none;fill-rule:nonzero;fill:rgb(52.54902%,47.843137%,93.333333%);fill-opacity:1;" d="M 41.46875 41.40625 L 39.417969 43.292969 L 37.535156 41.242188 L 39.585938 39.359375 L 41.46875 41.40625 "/>
</g>
</g>
</g>
<g clip-path="url(#clip46)" clip-rule="nonzero">
<g clip-path="url(#clip47)" clip-rule="nonzero">
<g clip-path="url(#clip48)" clip-rule="nonzero">
<path style=" stroke:none;fill-rule:nonzero;fill:rgb(12.54902%,16.078431%,32.941176%);fill-opacity:1;" d="M 41.46875 41.40625 L 41.273438 41.191406 L 39.433594 42.878906 L 37.949219 41.257812 L 39.570312 39.769531 L 41.253906 41.605469 L 41.46875 41.40625 L 41.273438 41.191406 L 41.46875 41.40625 L 41.683594 41.210938 L 39.800781 39.160156 C 39.75 39.105469 39.675781 39.070312 39.597656 39.066406 C 39.523438 39.0625 39.445312 39.09375 39.390625 39.144531 L 37.339844 41.027344 C 37.28125 41.078125 37.25 41.152344 37.246094 41.230469 C 37.242188 41.304688 37.269531 41.382812 37.320312 41.4375 L 39.203125 43.488281 C 39.253906 43.542969 39.328125 43.578125 39.40625 43.582031 C 39.484375 43.585938 39.558594 43.558594 39.613281 43.507812 L 41.667969 41.621094 C 41.722656 41.570312 41.757812 41.496094 41.761719 41.417969 C 41.761719 41.34375 41.734375 41.265625 41.683594 41.210938 L 41.46875 41.40625 "/>
</g>
</g>
</g>
<g clip-path="url(#clip49)" clip-rule="nonzero">
<g clip-path="url(#clip50)" clip-rule="nonzero">
<g clip-path="url(#clip51)" clip-rule="nonzero">
<path style=" stroke:none;fill-rule:nonzero;fill:rgb(52.54902%,47.843137%,93.333333%);fill-opacity:1;" d="M 46.449219 36.835938 L 44.398438 38.71875 L 42.515625 36.667969 L 44.566406 34.785156 L 46.449219 36.835938 "/>
</g>
</g>
</g>
<g clip-path="url(#clip52)" clip-rule="nonzero">
<g clip-path="url(#clip53)" clip-rule="nonzero">
<g clip-path="url(#clip54)" clip-rule="nonzero">
<path style=" stroke:none;fill-rule:nonzero;fill:rgb(12.54902%,16.078431%,32.941176%);fill-opacity:1;" d="M 46.449219 36.835938 L 46.25 36.621094 L 44.414062 38.304688 L 42.925781 36.6875 L 44.546875 35.199219 L 46.234375 37.03125 L 46.449219 36.835938 L 46.25 36.621094 L 46.449219 36.835938 L 46.664062 36.636719 L 44.78125 34.585938 C 44.726562 34.53125 44.65625 34.496094 44.578125 34.496094 C 44.5 34.492188 44.425781 34.519531 44.367188 34.570312 L 42.316406 36.453125 C 42.261719 36.503906 42.226562 36.578125 42.222656 36.65625 C 42.21875 36.734375 42.25 36.808594 42.300781 36.863281 L 44.183594 38.914062 C 44.234375 38.972656 44.308594 39.007812 44.386719 39.007812 C 44.460938 39.011719 44.539062 38.984375 44.59375 38.933594 L 46.644531 37.050781 C 46.703125 36.996094 46.734375 36.921875 46.738281 36.847656 C 46.742188 36.769531 46.714844 36.695312 46.664062 36.636719 L 46.449219 36.835938 "/>
</g>
</g>
</g>
<g clip-path="url(#clip55)" clip-rule="nonzero">
<g clip-path="url(#clip56)" clip-rule="nonzero">
<g clip-path="url(#clip57)" clip-rule="nonzero">
<path style=" stroke:none;fill-rule:nonzero;fill:rgb(12.54902%,16.078431%,32.941176%);fill-opacity:1;" d="M 27.277344 34.207031 L 27.835938 33.691406 L 27.324219 33.132812 L 28.445312 32.101562 L 28.960938 32.664062 L 29.519531 32.144531 L 30.035156 32.707031 L 29.476562 33.222656 L 28.960938 32.664062 L 27.835938 33.691406 L 28.351562 34.253906 L 27.792969 34.769531 Z M 34.339844 32.890625 L 34.855469 33.449219 L 33.734375 34.480469 L 33.21875 33.917969 L 32.65625 34.433594 L 33.171875 34.996094 L 32.050781 36.027344 L 31.535156 35.464844 L 30.972656 35.980469 L 29.945312 34.859375 L 30.503906 34.34375 L 31.535156 35.464844 L 32.65625 34.433594 L 31.628906 33.3125 L 32.1875 32.796875 L 33.21875 33.917969 L 34.339844 32.890625 L 33.308594 31.765625 L 33.871094 31.25 L 34.902344 32.375 Z M 33.964844 29.101562 L 33.402344 29.617188 L 32.886719 29.054688 L 31.765625 30.085938 L 32.28125 30.644531 L 31.71875 31.160156 L 31.203125 30.601562 L 31.765625 30.085938 L 31.25 29.523438 L 32.371094 28.492188 L 32.886719 29.054688 L 33.449219 28.539062 Z M 32.980469 26.902344 L 32.464844 26.339844 L 31.902344 26.855469 L 31.386719 26.296875 L 30.828125 26.8125 L 30.3125 26.25 L 29.75 26.765625 L 29.238281 26.207031 L 29.796875 25.691406 L 29.28125 25.128906 L 29.84375 24.613281 L 29.328125 24.054688 L 29.890625 23.539062 L 29.375 22.976562 L 28.253906 24.007812 L 28.765625 24.570312 L 28.207031 25.085938 L 28.722656 25.644531 L 28.160156 26.160156 L 28.675781 26.722656 L 25.871094 29.296875 L 25.355469 28.738281 L 24.792969 29.253906 L 24.277344 28.691406 L 23.71875 29.207031 L 23.203125 28.644531 L 22.082031 29.675781 L 22.59375 30.238281 L 23.15625 29.722656 L 23.671875 30.28125 L 24.234375 29.765625 L 24.746094 30.328125 L 25.308594 29.8125 L 25.824219 30.375 L 25.261719 30.890625 L 25.777344 31.449219 L 25.21875 31.964844 L 25.730469 32.527344 L 25.171875 33.042969 L 25.683594 33.601562 L 25.125 34.117188 L 28.730469 38.042969 L 29.289062 37.527344 L 29.804688 38.085938 L 30.367188 37.570312 L 30.882812 38.132812 L 31.441406 37.617188 L 31.957031 38.179688 L 32.519531 37.664062 L 33.035156 38.222656 L 36.960938 34.617188 L 36.445312 34.054688 L 37.007812 33.539062 L 36.492188 32.980469 L 37.054688 32.464844 L 36.539062 31.902344 L 37.101562 31.386719 L 36.585938 30.828125 L 37.144531 30.3125 L 33.539062 26.386719 L 32.980469 26.902344 "/>
<path style=" stroke:none;fill-rule:nonzero;fill:rgb(12.54902%,16.078431%,32.941176%);fill-opacity:1;" d="M 27.277344 34.207031 L 27.28125 34.210938 L 27.84375 33.691406 L 27.328125 33.132812 L 28.445312 32.109375 L 28.960938 32.667969 L 29.519531 32.152344 L 30.03125 32.707031 L 29.472656 33.214844 L 28.960938 32.65625 L 27.832031 33.691406 L 28.347656 34.253906 L 27.792969 34.761719 L 27.28125 34.203125 L 27.277344 34.207031 L 27.28125 34.210938 L 27.277344 34.207031 L 27.273438 34.210938 L 27.792969 34.773438 L 28.359375 34.253906 L 27.84375 33.691406 L 28.960938 32.667969 L 29.472656 33.230469 L 30.042969 32.707031 L 29.519531 32.140625 L 28.960938 32.65625 L 28.445312 32.09375 L 27.316406 33.132812 L 27.832031 33.691406 L 27.269531 34.207031 L 27.273438 34.210938 Z M 34.339844 32.890625 L 34.335938 32.890625 L 34.847656 33.449219 L 33.734375 34.472656 L 33.21875 33.914062 L 32.652344 34.433594 L 33.167969 34.996094 L 32.050781 36.019531 L 31.535156 35.460938 L 30.972656 35.976562 L 29.949219 34.859375 L 30.503906 34.351562 L 31.535156 35.472656 L 32.664062 34.433594 L 31.632812 33.3125 L 32.1875 32.804688 L 33.21875 33.925781 L 34.347656 32.890625 L 33.316406 31.769531 L 33.871094 31.257812 L 34.894531 32.375 L 34.335938 32.890625 L 34.34375 32.890625 L 34.90625 32.375 L 33.871094 31.246094 L 33.304688 31.765625 L 34.335938 32.890625 L 33.21875 33.914062 L 32.1875 32.792969 L 31.621094 33.3125 L 32.652344 34.433594 L 31.535156 35.460938 L 30.503906 34.339844 L 29.9375 34.859375 L 30.972656 35.988281 L 31.535156 35.472656 L 32.050781 36.03125 L 33.179688 34.996094 L 32.664062 34.433594 L 33.21875 33.925781 L 33.734375 34.484375 L 34.863281 33.449219 L 34.34375 32.886719 L 34.339844 32.890625 L 34.34375 32.890625 Z M 33.964844 29.101562 L 33.960938 29.097656 L 33.402344 29.609375 L 32.886719 29.046875 L 31.757812 30.085938 L 32.273438 30.644531 L 31.71875 31.15625 L 31.210938 30.601562 L 31.769531 30.085938 L 31.257812 29.523438 L 32.371094 28.5 L 32.886719 29.058594 L 33.449219 28.546875 L 33.960938 29.101562 L 33.964844 29.101562 L 33.960938 29.097656 L 33.964844 29.101562 L 33.964844 29.097656 L 33.449219 28.535156 L 32.886719 29.046875 L 32.371094 28.488281 L 31.242188 29.523438 L 31.757812 30.085938 L 31.199219 30.601562 L 31.71875 31.167969 L 32.285156 30.644531 L 31.769531 30.085938 L 32.886719 29.058594 L 33.402344 29.621094 L 33.96875 29.101562 L 33.964844 29.097656 Z M 32.980469 26.902344 L 32.984375 26.898438 L 32.464844 26.335938 L 31.902344 26.851562 L 31.386719 26.289062 L 30.828125 26.804688 L 30.3125 26.246094 L 29.75 26.761719 L 29.242188 26.207031 L 29.804688 25.691406 L 29.289062 25.128906 L 29.847656 24.613281 L 29.332031 24.054688 L 29.894531 23.539062 L 29.375 22.972656 L 28.246094 24.007812 L 28.761719 24.570312 L 28.199219 25.085938 L 28.714844 25.644531 L 28.152344 26.160156 L 28.667969 26.722656 L 25.871094 29.292969 L 25.355469 28.730469 L 24.792969 29.246094 L 24.277344 28.6875 L 23.71875 29.199219 L 23.203125 28.640625 L 22.074219 29.675781 L 22.59375 30.242188 L 23.15625 29.726562 L 23.671875 30.289062 L 24.234375 29.773438 L 24.746094 30.335938 L 25.308594 29.820312 L 25.816406 30.375 L 25.257812 30.886719 L 25.773438 31.449219 L 25.210938 31.964844 L 25.726562 32.527344 L 25.164062 33.039062 L 25.679688 33.601562 L 25.117188 34.117188 L 28.730469 38.046875 L 29.289062 37.53125 L 29.804688 38.09375 L 30.367188 37.578125 L 30.882812 38.136719 L 31.441406 37.625 L 31.957031 38.183594 L 32.519531 37.667969 L 33.035156 38.230469 L 36.96875 34.617188 L 36.453125 34.054688 L 37.011719 33.539062 L 36.496094 32.980469 L 37.058594 32.464844 L 36.542969 31.902344 L 37.105469 31.386719 L 36.589844 30.828125 L 37.152344 30.3125 L 33.539062 26.382812 L 32.976562 26.898438 L 32.980469 26.902344 L 32.984375 26.898438 L 32.980469 26.902344 L 32.980469 26.90625 L 33.539062 26.394531 L 37.140625 30.3125 L 36.578125 30.828125 L 37.09375 31.386719 L 36.53125 31.902344 L 37.046875 32.464844 L 36.484375 32.980469 L 37 33.539062 L 36.441406 34.054688 L 36.957031 34.617188 L 33.035156 38.21875 L 32.519531 37.65625 L 31.957031 38.171875 L 31.441406 37.613281 L 30.882812 38.125 L 30.367188 37.566406 L 29.804688 38.082031 L 29.292969 37.519531 L 28.730469 38.035156 L 25.128906 34.117188 L 25.691406 33.601562 L 25.175781 33.042969 L 25.738281 32.527344 L 25.222656 31.964844 L 25.785156 31.449219 L 25.269531 30.890625 L 25.828125 30.375 L 25.308594 29.808594 L 24.75 30.324219 L 24.234375 29.761719 L 23.671875 30.277344 L 23.15625 29.714844 L 22.59375 30.230469 L 22.085938 29.675781 L 23.203125 28.652344 L 23.71875 29.210938 L 24.277344 28.699219 L 24.792969 29.257812 L 25.355469 28.742188 L 25.871094 29.304688 L 28.679688 26.722656 L 28.167969 26.160156 L 28.726562 25.644531 L 28.210938 25.085938 L 28.773438 24.570312 L 28.257812 24.007812 L 29.375 22.984375 L 29.882812 23.539062 L 29.320312 24.054688 L 29.835938 24.613281 L 29.277344 25.128906 L 29.792969 25.691406 L 29.230469 26.207031 L 29.75 26.773438 L 30.3125 26.257812 L 30.828125 26.816406 L 31.386719 26.300781 L 31.902344 26.863281 L 32.464844 26.347656 L 32.980469 26.910156 L 32.980469 26.902344 "/>
</g>
</g>
</g>
</g>
</svg>
